<svg width="200" height="200" viewBox="0 0 200 200" fill="none" xmlns="http://www.w3.org/2000/svg">
<g clip-path="url(#clip0_409_96)">
<path d="M100 23.0253L97.6593 17.3406L91.974 14.9999L97.6593 12.6593L100 6.97461L102.341 12.6593L108.026 14.9999L102.341 17.3406L100 23.0253ZM96.638 11.6379L97.0007 10.7566L93.3333 8.33328L95.756 12.0006L96.638 11.6379ZM103.362 11.6379L104.215 11.9893L106.667 8.33394L103.011 10.7859L103.362 11.6379ZM103.362 18.3626L103.011 19.2153L106.667 21.6673L104.215 18.0119L103.362 18.3626ZM96.638 18.3626L95.7853 18.0113L93.3333 21.6666L96.9887 19.2146L96.638 18.3626Z" fill="#E2E1F2"/>
</g>
<defs>
<clipPath id="clip0_409_96">
<rect width="16" height="16" fill="white" transform="translate(92 7)"/>
</clipPath>
</defs>
</svg>
