<svg width="2944" height="411" viewBox="0 0 2944 411" fill="none" xmlns="http://www.w3.org/2000/svg">
<rect x="29" y="346" width="2904" height="59" fill="#003706"/>
<path d="M169 248.5C169 267.554 153.33 283 134 283C114.67 283 99 267.554 99 248.5C99 229.446 114.67 214 134 214C153.33 214 169 229.446 169 248.5Z" fill="#D9D9D9"/>
<path d="M195 235.5C195 254.554 179.33 270 160 270C140.67 270 125 254.554 125 235.5C125 216.446 140.67 201 160 201C179.33 201 195 216.446 195 235.5Z" fill="#D9D9D9"/>
<path d="M195 269.5C195 288.554 179.33 304 160 304C140.67 304 125 288.554 125 269.5C125 250.446 140.67 235 160 235C179.33 235 195 250.446 195 269.5Z" fill="#D9D9D9"/>
<path d="M272 270C272 297.614 248.943 321.5 220.5 321.5C192.057 321.5 169 297.614 169 270C169 242.386 192.057 220 220.5 220C248.943 220 272 242.386 272 270Z" fill="#D9D9D9"/>
<path d="M294 233.5C294 251.449 279.002 266 260.5 266C241.998 266 227 251.449 227 233.5C227 215.551 241.998 201 260.5 201C279.002 201 294 215.551 294 233.5Z" fill="#D9D9D9"/>
<path d="M313 271.5C313 289.449 298.002 304 279.5 304C260.998 304 246 289.449 246 271.5C246 253.551 260.998 239 279.5 239C298.002 239 313 253.551 313 271.5Z" fill="#D9D9D9"/>
<path d="M239 219C239 235.016 223.33 248 204 248C184.67 248 169 235.016 169 219C169 202.984 184.67 190 204 190C223.33 190 239 202.984 239 219Z" fill="#D9D9D9"/>
<path d="M73.293 215.8C74.4044 234.821 59.662 251.155 40.3649 252.282C21.0679 253.41 4.52358 238.904 3.4122 219.883C2.30083 200.861 17.0432 184.527 36.3403 183.4C55.6373 182.272 72.1816 196.778 73.293 215.8Z" fill="#594E71"/>
<path d="M98.4905 201.305C99.6019 220.327 84.8595 236.661 65.5624 237.788C46.2653 238.916 29.721 224.41 28.6097 205.388C27.4983 186.367 42.2407 170.033 61.5378 168.906C80.8348 167.778 97.3791 182.284 98.4905 201.305Z" fill="#594E71"/>
<path d="M100.474 235.247C101.585 254.269 86.8426 270.603 67.5456 271.73C48.2485 272.858 31.7042 258.352 30.5928 239.33C29.4815 220.309 44.2239 203.975 63.5209 202.848C82.818 201.72 99.3623 216.226 100.474 235.247Z" fill="#594E71"/>
<path d="M177.372 231.255C178.982 258.823 157.358 284.013 128.963 285.672C100.569 287.331 76.1578 264.83 74.5471 237.263C72.9364 209.696 94.6487 186.003 123.043 184.344C151.437 182.685 175.761 203.688 177.372 231.255Z" fill="#594E71"/>
<path d="M197.205 193.534C198.252 211.453 184.128 226.854 165.658 227.933C147.188 229.012 131.366 215.361 130.319 197.442C129.272 179.524 143.397 164.123 161.867 163.044C180.337 161.964 196.158 175.616 197.205 193.534Z" fill="#594E71"/>
<path d="M218.389 230.361C219.436 248.28 205.312 263.681 186.842 264.76C168.372 265.839 152.55 252.188 151.503 234.269C150.457 216.351 164.581 200.95 183.051 199.871C201.521 198.791 217.342 212.443 218.389 230.361Z" fill="#594E71"/>
<path d="M141.453 182.267C142.387 198.256 127.501 212.132 108.204 213.259C88.9072 214.387 72.5065 202.339 71.5723 186.35C70.6381 170.361 85.5242 156.485 104.821 155.358C124.118 154.23 140.519 166.278 141.453 182.267Z" fill="#594E71"/>
<path d="M432.576 267.555C432.425 248.501 447.971 232.931 467.301 232.777C486.63 232.623 502.422 247.944 502.574 266.998C502.726 286.051 487.179 301.621 467.85 301.775C448.52 301.929 432.728 286.608 432.576 267.555Z" fill="#D9D9D9"/>
<path d="M406.681 280.761C406.529 261.708 422.076 246.138 441.405 245.984C460.734 245.83 476.527 261.151 476.678 280.204C476.83 299.257 461.283 314.828 441.954 314.982C422.625 315.135 406.832 299.814 406.681 280.761Z" fill="#D9D9D9"/>
<path d="M406.41 246.762C406.258 227.709 421.805 212.139 441.134 211.985C460.464 211.831 476.256 227.152 476.408 246.205C476.559 265.258 461.013 280.829 441.683 280.983C422.354 281.136 406.562 265.815 406.41 246.762Z" fill="#D9D9D9"/>
<path d="M329.409 246.875C329.189 219.262 352.055 195.193 380.497 194.967C408.939 194.74 432.186 218.442 432.405 246.055C432.625 273.669 409.747 296.237 381.305 296.464C352.863 296.69 329.628 274.488 329.409 246.875Z" fill="#D9D9D9"/>
<path d="M307.7 283.549C307.557 265.6 322.439 250.931 340.94 250.783C359.441 250.636 374.555 265.067 374.698 283.016C374.84 300.964 359.958 315.634 341.457 315.781C322.956 315.929 307.842 301.498 307.7 283.549Z" fill="#D9D9D9"/>
<path d="M288.398 245.701C288.255 227.753 303.137 213.083 321.638 212.936C340.139 212.789 355.253 227.219 355.396 245.168C355.539 263.117 340.656 277.786 322.155 277.934C303.654 278.081 288.541 263.65 288.398 245.701Z" fill="#D9D9D9"/>
<path d="M362.813 297.611C362.686 281.595 378.252 268.487 397.581 268.333C416.911 268.179 432.684 281.038 432.811 297.054C432.939 313.07 417.372 326.178 398.043 326.331C378.714 326.485 362.941 313.627 362.813 297.611Z" fill="#D9D9D9"/>
<path d="M445.495 224.434C444.535 205.404 459.407 189.188 478.712 188.215C498.017 187.241 514.446 201.878 515.406 220.907C516.366 239.937 501.494 256.153 482.188 257.127C462.883 258.101 446.455 243.464 445.495 224.434Z" fill="#594E71"/>
<path d="M420.183 238.728C419.223 219.698 434.095 203.482 453.4 202.508C472.705 201.534 489.134 216.171 490.094 235.201C491.054 254.23 476.182 270.446 456.876 271.42C437.571 272.394 421.143 257.757 420.183 238.728Z" fill="#594E71"/>
<path d="M418.47 204.771C417.51 185.741 432.382 169.525 451.687 168.551C470.992 167.577 487.421 182.214 488.381 201.244C489.341 220.274 474.469 236.49 455.163 237.464C435.858 238.437 419.43 223.8 418.47 204.771Z" fill="#594E71"/>
<path d="M341.542 208.151C340.151 180.572 361.976 155.555 390.382 154.122C418.789 152.688 443.02 175.382 444.411 202.961C445.803 230.541 423.903 254.06 395.496 255.493C367.089 256.926 342.934 235.73 341.542 208.151Z" fill="#594E71"/>
<path d="M321.409 245.713C320.505 227.786 334.751 212.498 353.229 211.566C371.707 210.634 387.42 224.411 388.324 242.337C389.228 260.264 374.982 275.552 356.504 276.484C338.026 277.416 322.313 263.639 321.409 245.713Z" fill="#594E71"/>
<path d="M300.519 208.718C299.614 190.792 313.861 175.504 332.339 174.572C350.817 173.64 366.529 187.416 367.434 205.343C368.338 223.269 354.092 238.557 335.614 239.489C317.136 240.421 301.423 226.645 300.519 208.718Z" fill="#594E71"/>
<path d="M377.07 257.423C376.263 241.428 391.259 227.671 410.564 226.697C429.87 225.723 446.174 237.901 446.981 253.897C447.788 269.893 432.792 283.649 413.486 284.623C394.181 285.597 377.877 273.419 377.07 257.423Z" fill="#594E71"/>
<path d="M181.293 218.683C182.404 237.705 167.662 254.039 148.365 255.166C129.068 256.294 112.524 241.788 111.412 222.766C110.301 203.745 125.043 187.411 144.34 186.283C163.637 185.156 180.182 199.662 181.293 218.683Z" fill="#594E71"/>
<path d="M206.49 204.189C207.602 223.21 192.859 239.544 173.562 240.672C154.265 241.799 137.721 227.293 136.61 208.272C135.498 189.25 150.241 172.917 169.538 171.789C188.835 170.662 205.379 185.167 206.49 204.189Z" fill="#594E71"/>
<path d="M208.474 238.131C209.585 257.152 194.843 273.486 175.546 274.614C156.249 275.741 139.704 261.235 138.593 242.214C137.481 223.193 152.224 206.859 171.521 205.731C190.818 204.604 207.362 219.11 208.474 238.131Z" fill="#594E71"/>
<path d="M285.372 234.139C286.982 261.706 265.358 286.896 236.963 288.555C208.569 290.214 184.158 267.714 182.547 240.147C180.936 212.579 202.649 188.887 231.043 187.228C259.437 185.569 283.761 206.572 285.372 234.139Z" fill="#594E71"/>
<path d="M305.205 196.418C306.252 214.336 292.128 229.737 273.658 230.816C255.188 231.896 239.366 218.244 238.319 200.326C237.272 182.407 251.397 167.006 269.867 165.927C288.337 164.848 304.158 178.499 305.205 196.418Z" fill="#594E71"/>
<path d="M326.389 233.245C327.436 251.164 313.312 266.564 294.842 267.644C276.372 268.723 260.55 255.072 259.503 237.153C258.457 219.234 272.581 203.833 291.051 202.754C309.521 201.675 325.342 215.326 326.389 233.245Z" fill="#594E71"/>
<path d="M249.453 185.151C250.387 201.14 235.501 215.015 216.204 216.143C196.907 217.27 180.507 205.222 179.572 189.233C178.638 173.245 193.524 159.369 212.821 158.241C232.118 157.114 248.519 169.162 249.453 185.151Z" fill="#594E71"/>
<path d="M169 248.5C169 267.554 153.33 283 134 283C114.67 283 99 267.554 99 248.5C99 229.446 114.67 214 134 214C153.33 214 169 229.446 169 248.5Z" fill="#48366F"/>
<path d="M195 235.5C195 254.554 179.33 270 160 270C140.67 270 125 254.554 125 235.5C125 216.446 140.67 201 160 201C179.33 201 195 216.446 195 235.5Z" fill="#48366F"/>
<path d="M195 269.5C195 288.554 179.33 304 160 304C140.67 304 125 288.554 125 269.5C125 250.446 140.67 235 160 235C179.33 235 195 250.446 195 269.5Z" fill="#48366F"/>
<path d="M272 270C272 297.614 248.943 321.5 220.5 321.5C192.057 321.5 169 297.614 169 270C169 242.386 192.057 220 220.5 220C248.943 220 272 242.386 272 270Z" fill="#48366F"/>
<path d="M294 233.5C294 251.449 279.002 266 260.5 266C241.998 266 227 251.449 227 233.5C227 215.551 241.998 201 260.5 201C279.002 201 294 215.551 294 233.5Z" fill="#48366F"/>
<path d="M313 271.5C313 289.449 298.002 304 279.5 304C260.998 304 246 289.449 246 271.5C246 253.551 260.998 239 279.5 239C298.002 239 313 253.551 313 271.5Z" fill="#48366F"/>
<path d="M239 219C239 235.016 223.33 248 204 248C184.67 248 169 235.016 169 219C169 202.984 184.67 190 204 190C223.33 190 239 202.984 239 219Z" fill="#48366F"/>
<path d="M432.576 267.555C432.425 248.501 447.971 232.931 467.301 232.777C486.63 232.623 502.422 247.944 502.574 266.998C502.726 286.051 487.179 301.621 467.85 301.775C448.52 301.929 432.728 286.608 432.576 267.555Z" fill="#48366F"/>
<path d="M406.681 280.761C406.529 261.708 422.076 246.138 441.405 245.984C460.734 245.83 476.527 261.151 476.678 280.204C476.83 299.257 461.283 314.828 441.954 314.982C422.625 315.135 406.832 299.814 406.681 280.761Z" fill="#48366F"/>
<path d="M406.41 246.762C406.258 227.709 421.805 212.139 441.134 211.985C460.464 211.831 476.256 227.152 476.408 246.205C476.559 265.258 461.013 280.829 441.683 280.983C422.354 281.136 406.562 265.815 406.41 246.762Z" fill="#48366F"/>
<path d="M329.409 246.875C329.189 219.262 352.055 195.193 380.497 194.967C408.939 194.74 432.186 218.442 432.405 246.055C432.625 273.669 409.747 296.237 381.305 296.464C352.863 296.69 329.628 274.488 329.409 246.875Z" fill="#48366F"/>
<path d="M307.7 283.549C307.557 265.6 322.439 250.931 340.94 250.783C359.441 250.636 374.555 265.067 374.698 283.016C374.84 300.964 359.958 315.634 341.457 315.781C322.956 315.929 307.842 301.498 307.7 283.549Z" fill="#48366F"/>
<path d="M288.398 245.701C288.255 227.753 303.137 213.083 321.638 212.936C340.139 212.789 355.253 227.219 355.396 245.168C355.539 263.117 340.656 277.786 322.155 277.934C303.654 278.081 288.541 263.65 288.398 245.701Z" fill="#48366F"/>
<path d="M362.813 297.611C362.686 281.595 378.252 268.487 397.581 268.333C416.911 268.179 432.684 281.038 432.811 297.054C432.939 313.07 417.372 326.178 398.043 326.331C378.714 326.485 362.941 313.627 362.813 297.611Z" fill="#48366F"/>
<path d="M476.293 182.8C477.404 201.821 462.662 218.155 443.365 219.282C424.068 220.41 407.524 205.904 406.412 186.883C405.301 167.861 420.043 151.527 439.34 150.4C458.637 149.272 475.182 163.778 476.293 182.8Z" fill="#594E71"/>
<path d="M501.49 168.305C502.602 187.327 487.859 203.661 468.562 204.788C449.265 205.916 432.721 191.41 431.61 172.388C430.498 153.367 445.241 137.033 464.538 135.906C483.835 134.778 500.379 149.284 501.49 168.305Z" fill="#594E71"/>
<path d="M503.474 202.247C504.585 221.269 489.843 237.603 470.546 238.73C451.249 239.858 434.704 225.352 433.593 206.33C432.481 187.309 447.224 170.975 466.521 169.848C485.818 168.72 502.362 183.226 503.474 202.247Z" fill="#594E71"/>
<path d="M580.372 198.255C581.982 225.823 560.358 251.013 531.963 252.672C503.569 254.331 479.158 231.83 477.547 204.263C475.936 176.696 497.649 153.003 526.043 151.344C554.437 149.685 578.761 170.688 580.372 198.255Z" fill="#594E71"/>
<path d="M600.205 160.534C601.252 178.453 587.128 193.854 568.658 194.933C550.188 196.012 534.366 182.361 533.319 164.442C532.272 146.524 546.397 131.123 564.867 130.044C583.337 128.964 599.158 142.616 600.205 160.534Z" fill="#594E71"/>
<path d="M621.389 197.361C622.436 215.28 608.312 230.681 589.842 231.76C571.372 232.839 555.55 219.188 554.503 201.269C553.457 183.351 567.581 167.95 586.051 166.871C604.521 165.791 620.342 179.443 621.389 197.361Z" fill="#594E71"/>
<path d="M544.453 149.267C545.387 165.256 530.501 179.132 511.204 180.259C491.907 181.387 475.507 169.339 474.572 153.35C473.638 137.361 488.524 123.485 507.821 122.358C527.118 121.23 543.519 133.278 544.453 149.267Z" fill="#594E71"/>
<path d="M848.495 191.434C847.535 172.404 862.407 156.188 881.712 155.214C901.017 154.24 917.446 168.878 918.406 187.907C919.366 206.937 904.494 223.153 885.188 224.127C865.883 225.101 849.455 210.464 848.495 191.434Z" fill="#594E71"/>
<path d="M823.183 205.727C822.223 186.698 837.095 170.482 856.4 169.508C875.705 168.534 892.134 183.171 893.094 202.201C894.054 221.23 879.182 237.446 859.876 238.42C840.571 239.394 824.143 224.757 823.183 205.727Z" fill="#594E71"/>
<path d="M821.47 171.771C820.51 152.741 835.382 136.525 854.687 135.551C873.992 134.577 890.421 149.214 891.381 168.244C892.341 187.273 877.469 203.489 858.163 204.463C838.858 205.437 822.43 190.8 821.47 171.771Z" fill="#594E71"/>
<path d="M744.542 175.151C743.151 147.572 764.976 122.554 793.382 121.121C821.789 119.688 846.02 142.382 847.411 169.961C848.803 197.54 826.903 221.059 798.496 222.492C770.089 223.926 745.934 202.73 744.542 175.151Z" fill="#594E71"/>
<path d="M724.409 212.713C723.505 194.786 737.751 179.498 756.229 178.566C774.707 177.634 790.42 191.411 791.324 209.337C792.228 227.264 777.982 242.552 759.504 243.484C741.026 244.416 725.313 230.639 724.409 212.713Z" fill="#594E71"/>
<path d="M703.519 175.718C702.614 157.792 716.861 142.504 735.339 141.572C753.817 140.64 769.529 154.416 770.434 172.343C771.338 190.269 757.092 205.557 738.614 206.489C720.136 207.421 704.423 193.645 703.519 175.718Z" fill="#594E71"/>
<path d="M780.07 224.423C779.263 208.427 794.259 194.671 813.564 193.697C832.87 192.723 849.174 204.901 849.981 220.897C850.788 236.892 835.792 250.649 816.486 251.623C797.181 252.597 780.877 240.419 780.07 224.423Z" fill="#594E71"/>
<path d="M830.495 212.434C829.535 193.404 844.407 177.188 863.712 176.215C883.018 175.241 899.446 189.878 900.406 208.907C901.366 227.937 886.494 244.153 867.189 245.127C847.883 246.101 831.455 231.464 830.495 212.434Z" fill="#594E71"/>
<path d="M805.183 226.728C804.223 207.698 819.095 191.482 838.4 190.508C857.706 189.534 874.134 204.171 875.094 223.201C876.054 242.23 861.182 258.446 841.877 259.42C822.571 260.394 806.143 245.757 805.183 226.728Z" fill="#594E71"/>
<path d="M803.47 192.771C802.51 173.741 817.382 157.525 836.687 156.551C855.993 155.577 872.421 170.214 873.381 189.244C874.341 208.274 859.469 224.49 840.164 225.464C820.858 226.437 804.43 211.8 803.47 192.771Z" fill="#594E71"/>
<path d="M726.543 196.151C725.151 168.572 746.976 143.555 775.383 142.122C803.789 140.688 828.021 163.382 829.412 190.961C830.803 218.541 808.903 242.06 780.496 243.493C752.09 244.926 727.934 223.73 726.543 196.151Z" fill="#594E71"/>
<path d="M706.41 233.713C705.505 215.786 719.752 200.498 738.23 199.566C756.708 198.634 772.42 212.411 773.324 230.337C774.229 248.264 759.982 263.552 741.504 264.484C723.026 265.416 707.314 251.639 706.41 233.713Z" fill="#594E71"/>
<path d="M685.519 196.718C684.615 178.792 698.861 163.504 717.339 162.572C735.817 161.64 751.53 175.416 752.434 193.343C753.338 211.269 739.092 226.557 720.614 227.489C702.136 228.421 686.423 214.645 685.519 196.718Z" fill="#594E71"/>
<path d="M762.07 245.423C761.263 229.428 776.259 215.671 795.565 214.697C814.87 213.723 831.174 225.901 831.981 241.897C832.788 257.893 817.792 271.649 798.487 272.623C779.181 273.597 762.877 261.419 762.07 245.423Z" fill="#594E71"/>
<path d="M1038.5 212.434C1037.54 193.404 1052.41 177.188 1071.71 176.215C1091.02 175.241 1107.45 189.878 1108.41 208.907C1109.37 227.937 1094.49 244.153 1075.19 245.127C1055.88 246.101 1039.46 231.464 1038.5 212.434Z" fill="#594E71"/>
<path d="M1013.18 226.728C1012.22 207.698 1027.1 191.482 1046.4 190.508C1065.71 189.534 1082.13 204.171 1083.09 223.201C1084.05 242.23 1069.18 258.446 1049.88 259.42C1030.57 260.394 1014.14 245.757 1013.18 226.728Z" fill="#594E71"/>
<path d="M1011.47 192.771C1010.51 173.741 1025.38 157.525 1044.69 156.551C1063.99 155.577 1080.42 170.214 1081.38 189.244C1082.34 208.274 1067.47 224.49 1048.16 225.464C1028.86 226.437 1012.43 211.8 1011.47 192.771Z" fill="#594E71"/>
<path d="M934.543 196.151C933.151 168.572 954.976 143.555 983.383 142.122C1011.79 140.688 1036.02 163.382 1037.41 190.961C1038.8 218.541 1016.9 242.06 988.496 243.493C960.09 244.926 935.934 223.73 934.543 196.151Z" fill="#594E71"/>
<path d="M914.41 233.713C913.505 215.786 927.752 200.498 946.23 199.566C964.708 198.634 980.42 212.411 981.324 230.337C982.229 248.264 967.983 263.552 949.504 264.484C931.026 265.416 915.314 251.639 914.41 233.713Z" fill="#594E71"/>
<path d="M893.519 196.718C892.615 178.792 906.861 163.504 925.339 162.572C943.817 161.64 959.53 175.416 960.434 193.343C961.338 211.269 947.092 226.557 928.614 227.489C910.136 228.421 894.423 214.645 893.519 196.718Z" fill="#594E71"/>
<path d="M970.07 245.423C969.263 229.428 984.259 215.671 1003.56 214.697C1022.87 213.723 1039.17 225.901 1039.98 241.897C1040.79 257.893 1025.79 271.649 1006.49 272.623C987.182 273.597 970.877 261.419 970.07 245.423Z" fill="#594E71"/>
<path d="M1107.59 212.862C1109.53 231.817 1095.52 248.779 1076.29 250.748C1057.06 252.716 1039.9 238.946 1037.96 219.992C1036.02 201.037 1050.03 184.075 1069.26 182.106C1088.49 180.138 1105.65 193.908 1107.59 212.862Z" fill="#594E71"/>
<path d="M1132.13 197.282C1134.08 216.237 1120.06 233.198 1100.83 235.167C1081.6 237.136 1064.44 223.366 1062.5 204.411C1060.56 185.456 1074.57 168.495 1093.8 166.526C1113.03 164.557 1130.19 178.327 1132.13 197.282Z" fill="#594E71"/>
<path d="M1135.6 231.105C1137.54 250.06 1123.52 267.022 1104.29 268.99C1085.06 270.959 1067.9 257.189 1065.96 238.234C1064.02 219.28 1078.04 202.318 1097.27 200.349C1116.5 198.38 1133.66 212.15 1135.6 231.105Z" fill="#594E71"/>
<path d="M1212.25 223.76C1215.06 251.231 1194.56 277.341 1166.26 280.237C1137.97 283.134 1112.6 261.721 1109.78 234.25C1106.97 206.78 1127.63 182.162 1155.92 179.265C1184.22 176.368 1209.44 196.289 1212.25 223.76Z" fill="#594E71"/>
<path d="M1230.42 185.209C1232.24 203.065 1218.81 219.068 1200.4 220.952C1182 222.836 1165.59 209.889 1163.76 192.033C1161.94 174.177 1175.38 158.174 1193.78 156.29C1212.19 154.406 1228.59 167.353 1230.42 185.209Z" fill="#594E71"/>
<path d="M1253.19 221.076C1255.02 238.932 1241.58 254.935 1223.17 256.819C1204.77 258.704 1188.36 245.756 1186.54 227.9C1184.71 210.044 1198.15 194.042 1216.55 192.157C1234.96 190.273 1251.36 203.221 1253.19 221.076Z" fill="#594E71"/>
<path d="M1174.23 176.386C1175.86 192.319 1161.59 206.831 1142.36 208.8C1123.13 210.769 1106.22 199.449 1104.59 183.516C1102.96 167.583 1117.22 153.071 1136.45 151.102C1155.68 149.133 1172.59 160.453 1174.23 176.386Z" fill="#594E71"/>
<path d="M1257.59 190.862C1259.53 209.817 1245.52 226.779 1226.29 228.748C1207.06 230.716 1189.9 216.946 1187.96 197.992C1186.02 179.037 1200.03 162.075 1219.26 160.106C1238.49 158.138 1255.65 171.908 1257.59 190.862Z" fill="#594E71"/>
<path d="M1282.13 175.282C1284.08 194.237 1270.06 211.198 1250.83 213.167C1231.6 215.136 1214.44 201.366 1212.5 182.411C1210.56 163.456 1224.57 146.495 1243.8 144.526C1263.03 142.557 1280.19 156.327 1282.13 175.282Z" fill="#594E71"/>
<path d="M1285.6 209.105C1287.54 228.06 1273.52 245.022 1254.29 246.99C1235.06 248.959 1217.9 235.189 1215.96 216.234C1214.02 197.28 1228.04 180.318 1247.27 178.349C1266.5 176.38 1283.66 190.15 1285.6 209.105Z" fill="#594E71"/>
<path d="M1362.25 201.76C1365.06 229.231 1344.56 255.341 1316.26 258.237C1287.97 261.134 1262.6 239.721 1259.78 212.25C1256.97 184.78 1277.63 160.162 1305.92 157.265C1334.22 154.368 1359.44 174.289 1362.25 201.76Z" fill="#594E71"/>
<path d="M1380.42 163.209C1382.24 181.065 1368.81 197.068 1350.4 198.952C1332 200.836 1315.59 187.889 1313.76 170.033C1311.94 152.177 1325.38 136.174 1343.78 134.29C1362.19 132.406 1378.59 145.353 1380.42 163.209Z" fill="#594E71"/>
<path d="M1403.19 199.076C1405.02 216.932 1391.58 232.935 1373.17 234.819C1354.77 236.704 1338.36 223.756 1336.54 205.9C1334.71 188.044 1348.15 172.042 1366.55 170.157C1384.96 168.273 1401.36 181.221 1403.19 199.076Z" fill="#594E71"/>
<path d="M1324.23 154.386C1325.86 170.319 1311.59 184.831 1292.36 186.8C1273.13 188.769 1256.22 177.449 1254.59 161.516C1252.96 145.583 1267.22 131.071 1286.45 129.102C1305.68 127.133 1322.59 138.453 1324.23 154.386Z" fill="#594E71"/>
<path d="M1410.59 224.862C1412.53 243.817 1398.52 260.779 1379.29 262.748C1360.06 264.716 1342.9 250.946 1340.96 231.992C1339.02 213.037 1353.03 196.075 1372.26 194.106C1391.49 192.138 1408.65 205.908 1410.59 224.862Z" fill="#594E71"/>
<path d="M1435.13 209.282C1437.08 228.237 1423.06 245.198 1403.83 247.167C1384.6 249.136 1367.44 235.366 1365.5 216.411C1363.56 197.456 1377.57 180.495 1396.8 178.526C1416.03 176.557 1433.19 190.327 1435.13 209.282Z" fill="#594E71"/>
<path d="M1438.6 243.105C1440.54 262.06 1426.52 279.022 1407.29 280.99C1388.06 282.959 1370.9 269.189 1368.96 250.234C1367.02 231.28 1381.04 214.318 1400.27 212.349C1419.5 210.38 1436.66 224.15 1438.6 243.105Z" fill="#594E71"/>
<path d="M1515.25 235.76C1518.06 263.231 1497.56 289.341 1469.26 292.237C1440.97 295.134 1415.6 273.721 1412.78 246.25C1409.97 218.78 1430.63 194.162 1458.92 191.265C1487.22 188.368 1512.44 208.289 1515.25 235.76Z" fill="#594E71"/>
<path d="M1533.42 197.209C1535.24 215.065 1521.81 231.068 1503.4 232.952C1485 234.836 1468.59 221.889 1466.76 204.033C1464.94 186.177 1478.38 170.174 1496.78 168.29C1515.19 166.406 1531.59 179.353 1533.42 197.209Z" fill="#594E71"/>
<path d="M1556.19 233.076C1558.02 250.932 1544.58 266.935 1526.17 268.819C1507.77 270.704 1491.36 257.756 1489.54 239.9C1487.71 222.044 1501.15 206.042 1519.55 204.157C1537.96 202.273 1554.36 215.221 1556.19 233.076Z" fill="#594E71"/>
<path d="M1477.23 188.386C1478.86 204.319 1464.59 218.831 1445.36 220.8C1426.13 222.769 1409.22 211.449 1407.59 195.516C1405.96 179.583 1420.22 165.071 1439.45 163.102C1458.68 161.133 1475.59 172.453 1477.23 188.386Z" fill="#594E71"/>
<path d="M1561.14 154.025C1547.36 167.188 1525.37 166.529 1512.02 152.553C1498.66 138.577 1499 116.576 1512.78 103.413C1526.56 90.2506 1548.55 90.9098 1561.9 104.886C1575.26 118.862 1574.91 140.862 1561.14 154.025Z" fill="#594E71"/>
<path d="M1623.08 178.739C1609.3 191.902 1587.31 191.243 1573.96 177.267C1560.6 163.291 1560.95 141.29 1574.72 128.128C1588.5 114.965 1610.49 115.624 1623.84 129.6C1637.2 143.576 1636.86 165.576 1623.08 178.739Z" fill="#594E71"/>
<path d="M1563.92 187.331C1550.14 200.494 1528.15 199.835 1514.79 185.859C1501.44 171.883 1501.78 149.882 1515.56 136.719C1529.33 123.557 1551.33 124.216 1564.68 138.192C1578.04 152.168 1577.69 174.168 1563.92 187.331Z" fill="#594E71"/>
<path d="M1616.75 243.349C1596.78 262.426 1563.58 262.256 1543.94 241.691C1524.29 221.126 1525.63 187.954 1545.59 168.878C1565.56 149.801 1597.67 151.007 1617.32 171.572C1636.97 192.137 1636.71 224.272 1616.75 243.349Z" fill="#594E71"/>
<path d="M1658.34 234.04C1645.36 246.44 1624.48 245.648 1611.7 232.271C1598.91 218.894 1599.07 197.998 1612.05 185.598C1625.03 173.198 1645.91 173.99 1658.69 187.367C1671.47 200.744 1671.31 221.641 1658.34 234.04Z" fill="#594E71"/>
<path d="M1643.99 274.029C1631.01 286.429 1610.13 285.637 1597.35 272.26C1584.57 258.883 1584.72 237.986 1597.7 225.587C1610.68 213.187 1631.56 213.979 1644.34 227.356C1657.12 240.733 1656.97 261.629 1643.99 274.029Z" fill="#594E71"/>
<path d="M1518.77 182.059C1507.19 193.123 1486.98 190.763 1473.62 176.787C1460.27 162.811 1458.83 142.512 1470.41 131.447C1481.99 120.383 1502.2 122.743 1515.56 136.719C1528.91 150.695 1530.35 170.995 1518.77 182.059Z" fill="#594E71"/>
<path d="M1464.67 187.331C1450.89 200.494 1428.9 199.835 1415.55 185.859C1402.19 171.883 1402.54 149.882 1416.31 136.719C1430.09 123.557 1452.08 124.216 1465.44 138.192C1478.79 152.168 1478.45 174.168 1464.67 187.331Z" fill="#594E71"/>
<path d="M1414.1 187.331C1400.32 200.494 1378.33 199.835 1364.97 185.859C1351.62 171.883 1351.96 149.882 1365.74 136.719C1379.52 123.556 1401.51 124.216 1414.86 138.192C1428.22 152.168 1427.87 174.168 1414.1 187.331Z" fill="#594E71"/>
<path d="M1670.04 192.007C1668.73 211.015 1652.04 225.347 1632.75 224.017C1613.47 222.687 1598.9 206.199 1600.21 187.19C1601.52 168.182 1618.22 153.85 1637.5 155.18C1656.78 156.51 1671.35 172.998 1670.04 192.007Z" fill="#594E71"/>
<path d="M1696.88 180.827C1695.57 199.835 1678.87 214.167 1659.59 212.837C1640.3 211.507 1625.73 195.019 1627.04 176.01C1628.35 157.002 1645.05 142.67 1664.33 144C1683.62 145.33 1698.19 161.818 1696.88 180.827Z" fill="#594E71"/>
<path d="M1694.54 214.746C1693.23 233.755 1676.53 248.086 1657.25 246.756C1637.96 245.426 1623.39 228.938 1624.7 209.93C1626.01 190.921 1642.71 176.59 1661.99 177.92C1681.28 179.25 1695.85 195.737 1694.54 214.746Z" fill="#594E71"/>
<path d="M1771.32 220.543C1769.42 248.091 1744.77 270.334 1716.4 268.377C1688.02 266.42 1666.66 241.005 1668.56 213.456C1670.46 185.907 1695.01 165.161 1723.38 167.118C1751.76 169.075 1773.22 192.994 1771.32 220.543Z" fill="#594E71"/>
<path d="M1795.78 185.643C1794.54 203.55 1778.58 217.034 1760.12 215.761C1741.66 214.488 1727.7 198.94 1728.94 181.033C1730.17 163.126 1746.14 149.642 1764.59 150.915C1783.05 152.188 1797.01 167.736 1795.78 185.643Z" fill="#594E71"/>
<path d="M1812.12 224.86C1810.88 242.767 1794.92 256.251 1776.46 254.978C1758.01 253.705 1744.04 238.157 1745.28 220.25C1746.51 202.344 1762.48 188.859 1780.94 190.132C1799.39 191.405 1813.35 206.953 1812.12 224.86Z" fill="#594E71"/>
<path d="M1741.91 167.393C1740.81 183.371 1724.28 195.246 1704.99 193.916C1685.71 192.586 1670.97 178.555 1672.07 162.577C1673.18 146.598 1689.7 134.724 1708.99 136.054C1728.27 137.384 1743.01 151.415 1741.91 167.393Z" fill="#594E71"/>
<path d="M1836.76 208.081C1835.45 227.09 1818.75 241.421 1799.47 240.091C1780.18 238.761 1765.61 222.274 1766.92 203.265C1768.24 184.256 1784.93 169.925 1804.21 171.255C1823.5 172.585 1838.07 189.072 1836.76 208.081Z" fill="#594E71"/>
<path d="M1863.59 196.901C1862.28 215.91 1845.58 230.241 1826.3 228.911C1807.02 227.581 1792.45 211.093 1793.76 192.085C1795.07 173.076 1811.76 158.744 1831.05 160.074C1850.33 161.404 1864.9 177.892 1863.59 196.901Z" fill="#594E71"/>
<path d="M1861.25 230.82C1859.94 249.829 1843.25 264.16 1823.96 262.83C1804.68 261.5 1790.11 245.013 1791.42 226.004C1792.73 206.995 1809.42 192.664 1828.71 193.994C1847.99 195.324 1862.56 211.812 1861.25 230.82Z" fill="#594E71"/>
<path d="M2017.42 188.49C2015.52 216.039 1990.87 238.282 1962.49 236.325C1934.12 234.368 1912.76 208.952 1914.66 181.403C1916.56 153.854 1941.1 133.108 1969.48 135.065C1997.85 137.022 2019.32 160.941 2017.42 188.49Z" fill="#594E71"/>
<path d="M1962.49 201.717C1961.26 219.624 1945.29 233.108 1926.84 231.835C1908.38 230.562 1894.42 215.014 1895.65 197.107C1896.89 179.201 1912.85 165.716 1931.31 166.989C1949.77 168.262 1963.73 183.811 1962.49 201.717Z" fill="#594E71"/>
<path d="M1978.83 240.934C1977.6 258.841 1961.64 272.326 1943.18 271.053C1924.72 269.78 1910.76 254.231 1911.99 236.325C1913.23 218.418 1929.19 204.934 1947.65 206.207C1966.11 207.48 1980.07 223.028 1978.83 240.934Z" fill="#594E71"/>
<path d="M1911.99 236.325C1910.89 252.303 1894.36 264.178 1875.08 262.848C1855.8 261.518 1841.06 247.487 1842.16 231.508C1843.26 215.53 1859.79 203.655 1879.07 204.985C1898.36 206.315 1913.1 220.346 1911.99 236.325Z" fill="#594E71"/>
<path d="M1931.46 201.081C1929.56 228.63 1904.92 250.872 1876.54 248.915C1848.17 246.958 1826.81 221.543 1828.71 193.994C1830.61 166.445 1855.15 145.699 1883.53 147.656C1911.9 149.613 1933.36 173.532 1931.46 201.081Z" fill="#594E71"/>
<path d="M1859.3 240.091C1857.4 267.64 1832.75 289.883 1804.38 287.926C1776 285.969 1754.64 260.553 1756.54 233.004C1758.44 205.456 1782.99 184.709 1811.36 186.666C1839.74 188.623 1861.2 212.542 1859.3 240.091Z" fill="#594E71"/>
<path d="M1950.33 158.372C1949.1 176.279 1933.14 189.763 1914.68 188.49C1896.22 187.217 1882.26 171.669 1883.49 153.762C1884.73 135.855 1900.69 122.371 1919.15 123.644C1937.61 124.917 1951.57 140.465 1950.33 158.372Z" fill="#594E71"/>
<path d="M2106.83 220.947C2113.34 203.04 2133.34 193.876 2151.51 200.479C2169.68 207.082 2179.13 226.952 2172.62 244.86C2166.11 262.767 2146.11 271.931 2127.94 265.328C2109.77 258.725 2100.32 238.855 2106.83 220.947Z" fill="#594E71"/>
<path d="M2077.95 224.283C2084.46 206.376 2104.47 197.212 2122.63 203.815C2140.8 210.418 2150.25 230.288 2143.74 248.196C2137.23 266.103 2117.23 275.267 2099.06 268.664C2080.9 262.061 2071.45 242.191 2077.95 224.283Z" fill="#594E71"/>
<path d="M2089.57 192.329C2096.08 174.421 2116.08 165.257 2134.25 171.86C2152.42 178.463 2161.87 198.333 2155.36 216.241C2148.85 234.149 2128.85 243.313 2110.68 236.709C2092.51 230.106 2083.06 210.236 2089.57 192.329Z" fill="#594E71"/>
<path d="M1927.79 189.892C1937.22 163.939 1967.05 149.366 1993.78 159.082C2020.51 168.798 2034.03 199.124 2024.59 225.077C2015.16 251.03 1985.84 264.193 1959.11 254.476C1932.38 244.76 1918.36 215.845 1927.79 189.892Z" fill="#594E71"/>
<path d="M1984.23 192.344C1990.36 175.475 2009.43 166.923 2026.81 173.243C2044.2 179.563 2053.33 198.362 2047.2 215.232C2041.07 232.101 2022 240.653 2004.61 234.333C1987.22 228.013 1978.1 209.214 1984.23 192.344Z" fill="#594E71"/>
<path d="M1979.35 150.14C1985.48 133.27 2004.55 124.718 2021.94 131.038C2039.33 137.359 2048.45 156.158 2042.32 173.027C2036.19 189.897 2017.12 198.449 1999.73 192.128C1982.35 185.808 1973.22 167.009 1979.35 150.14Z" fill="#594E71"/>
<path d="M2042.32 173.027C2047.79 157.974 2066.95 151.125 2085.12 157.728C2103.29 164.331 2113.58 181.887 2108.11 196.94C2102.64 211.992 2083.48 218.842 2065.31 212.239C2047.14 205.636 2036.85 188.08 2042.32 173.027Z" fill="#594E71"/>
<path d="M2013.87 201.524C2023.31 175.571 2053.14 160.999 2079.87 170.715C2106.6 180.431 2120.11 210.756 2110.68 236.709C2101.25 262.663 2071.93 275.825 2045.2 266.109C2018.46 256.393 2004.44 227.477 2013.87 201.524Z" fill="#594E71"/>
<path d="M2094.01 183.957C2103.44 158.004 2133.27 143.432 2160 153.148C2186.73 162.864 2200.24 193.19 2190.81 219.143C2181.38 245.096 2152.06 258.258 2125.33 248.542C2098.6 238.826 2084.57 209.91 2094.01 183.957Z" fill="#594E71"/>
<path d="M1983.94 237.362C1990.08 220.492 2009.14 211.94 2026.53 218.261C2043.92 224.581 2053.05 243.38 2046.91 260.249C2040.78 277.119 2021.72 285.671 2004.33 279.35C1986.94 273.03 1977.81 254.231 1983.94 237.362Z" fill="#594E71"/>
<path d="M2318.83 203.064C2325.34 185.157 2345.35 175.993 2363.51 182.596C2381.68 189.199 2391.13 209.069 2384.62 226.977C2378.11 244.884 2358.11 254.048 2339.94 247.445C2321.77 240.842 2312.32 220.972 2318.83 203.064Z" fill="#594E71"/>
<path d="M2289.96 206.401C2296.46 188.493 2316.47 179.329 2334.64 185.932C2352.8 192.535 2362.25 212.405 2355.74 230.313C2349.24 248.221 2329.23 257.385 2311.06 250.781C2292.9 244.178 2283.45 224.308 2289.96 206.401Z" fill="#594E71"/>
<path d="M2301.57 174.446C2308.08 156.538 2328.08 147.374 2346.25 153.978C2364.42 160.581 2373.87 180.451 2367.36 198.358C2360.85 216.266 2340.85 225.43 2322.68 218.827C2304.51 212.224 2295.06 192.354 2301.57 174.446Z" fill="#594E71"/>
<path d="M2139.79 172.009C2149.22 146.056 2179.05 131.483 2205.78 141.2C2232.52 150.916 2246.03 181.241 2236.59 207.194C2227.16 233.147 2197.84 246.31 2171.11 236.594C2144.38 226.878 2130.36 197.962 2139.79 172.009Z" fill="#594E71"/>
<path d="M2196.23 174.461C2202.36 157.592 2221.43 149.04 2238.82 155.36C2256.2 161.681 2265.33 180.48 2259.2 197.349C2253.07 214.218 2234 222.77 2216.61 216.45C2199.22 210.13 2190.1 191.331 2196.23 174.461Z" fill="#594E71"/>
<path d="M2191.35 132.257C2197.48 115.387 2216.55 106.836 2233.94 113.156C2251.33 119.476 2260.45 138.275 2254.32 155.144C2248.19 172.014 2229.12 180.566 2211.73 174.246C2194.35 167.925 2185.22 149.126 2191.35 132.257Z" fill="#594E71"/>
<path d="M2254.32 155.144C2259.79 140.092 2278.96 133.242 2297.12 139.845C2315.29 146.448 2325.58 164.004 2320.11 179.057C2314.64 194.11 2295.48 200.959 2277.31 194.356C2259.14 187.753 2248.85 170.197 2254.32 155.144Z" fill="#594E71"/>
<path d="M2225.88 183.641C2235.31 157.688 2265.14 143.116 2291.87 152.832C2318.6 162.548 2332.11 192.874 2322.68 218.827C2313.25 244.78 2283.93 257.942 2257.2 248.226C2230.47 238.51 2216.44 209.595 2225.88 183.641Z" fill="#594E71"/>
<path d="M2306.01 166.075C2315.44 140.122 2345.27 125.549 2372 135.265C2398.73 144.981 2412.24 175.307 2402.81 201.26C2393.38 227.213 2364.06 240.376 2337.33 230.659C2310.6 220.943 2296.57 192.028 2306.01 166.075Z" fill="#594E71"/>
<path d="M2195.95 219.479C2202.08 202.609 2221.14 194.058 2238.53 200.378C2255.92 206.698 2265.05 225.497 2258.92 242.367C2252.78 259.236 2233.72 267.788 2216.33 261.468C2198.94 255.147 2189.81 236.348 2195.95 219.479Z" fill="#594E71"/>
<path d="M2499.83 209.064C2506.34 191.157 2526.35 181.993 2544.51 188.596C2562.68 195.199 2572.13 215.069 2565.62 232.977C2559.11 250.884 2539.11 260.048 2520.94 253.445C2502.77 246.842 2493.32 226.972 2499.83 209.064Z" fill="#594E71"/>
<path d="M2470.96 212.401C2477.46 194.493 2497.47 185.329 2515.64 191.932C2533.8 198.535 2543.25 218.405 2536.74 236.313C2530.24 254.221 2510.23 263.385 2492.06 256.781C2473.9 250.178 2464.45 230.308 2470.96 212.401Z" fill="#594E71"/>
<path d="M2482.57 180.446C2489.08 162.538 2509.08 153.374 2527.25 159.978C2545.42 166.581 2554.87 186.451 2548.36 204.358C2541.85 222.266 2521.85 231.43 2503.68 224.827C2485.51 218.224 2476.06 198.354 2482.57 180.446Z" fill="#594E71"/>
<path d="M2320.79 178.009C2330.22 152.056 2360.05 137.483 2386.78 147.2C2413.52 156.916 2427.03 187.241 2417.59 213.194C2408.16 239.147 2378.84 252.31 2352.11 242.594C2325.38 232.878 2311.36 203.962 2320.79 178.009Z" fill="#594E71"/>
<path d="M2377.23 180.461C2383.36 163.592 2402.43 155.04 2419.81 161.36C2437.2 167.681 2446.33 186.48 2440.2 203.349C2434.07 220.218 2415 228.77 2397.61 222.45C2380.22 216.13 2371.1 197.331 2377.23 180.461Z" fill="#594E71"/>
<path d="M2372.35 138.257C2378.48 121.387 2397.55 112.836 2414.94 119.156C2432.33 125.476 2441.45 144.275 2435.32 161.144C2429.19 178.014 2410.12 186.566 2392.73 180.246C2375.35 173.925 2366.22 155.126 2372.35 138.257Z" fill="#594E71"/>
<path d="M2435.32 161.144C2440.79 146.092 2459.96 139.242 2478.12 145.845C2496.29 152.448 2506.58 170.004 2501.11 185.057C2495.64 200.11 2476.48 206.959 2458.31 200.356C2440.14 193.753 2429.85 176.197 2435.32 161.144Z" fill="#594E71"/>
<path d="M2406.88 189.641C2416.31 163.688 2446.14 149.116 2472.87 158.832C2499.6 168.548 2513.11 198.874 2503.68 224.827C2494.25 250.78 2464.93 263.942 2438.2 254.226C2411.47 244.51 2397.44 215.595 2406.88 189.641Z" fill="#594E71"/>
<path d="M2487.01 172.075C2496.44 146.122 2526.27 131.549 2553 141.265C2579.73 150.981 2593.24 181.307 2583.81 207.26C2574.38 233.213 2545.06 246.376 2518.33 236.659C2491.6 226.943 2477.57 198.028 2487.01 172.075Z" fill="#594E71"/>
<path d="M2376.95 225.479C2383.08 208.609 2402.14 200.058 2419.53 206.378C2436.92 212.698 2446.05 231.497 2439.92 248.367C2433.78 265.236 2414.72 273.788 2397.33 267.468C2379.94 261.147 2370.81 242.348 2376.95 225.479Z" fill="#594E71"/>
<path d="M2411.33 258.993C2422.05 274.742 2417.8 296.329 2401.82 307.208C2385.84 318.088 2364.19 314.139 2353.47 298.39C2342.75 282.641 2347 261.054 2362.98 250.174C2378.96 239.295 2400.61 243.243 2411.33 258.993Z" fill="#594E71"/>
<path d="M2425.5 233.614C2436.23 249.363 2431.97 270.95 2415.99 281.829C2400.01 292.709 2378.37 288.761 2367.64 273.011C2356.92 257.262 2361.18 235.675 2377.16 224.795C2393.13 213.916 2414.78 217.864 2425.5 233.614Z" fill="#594E71"/>
<path d="M2444.64 261.717C2455.36 277.467 2451.11 299.054 2435.13 309.933C2419.15 320.812 2397.5 316.864 2386.78 301.115C2376.06 285.365 2380.32 263.778 2396.29 252.899C2412.27 242.02 2433.92 245.968 2444.64 261.717Z" fill="#594E71"/>
<path d="M2541.19 131.885C2556.74 154.71 2551.12 187.431 2527.61 203.439C2504.1 219.447 2471.6 212.681 2456.06 189.855C2440.51 167.03 2446.97 135.549 2470.48 119.541C2493.99 103.533 2525.65 109.06 2541.19 131.885Z" fill="#594E71"/>
<path d="M2506.21 176.241C2516.31 191.078 2512.1 211.546 2496.81 221.96C2481.52 232.373 2460.93 228.787 2450.83 213.95C2440.73 199.114 2444.94 178.645 2460.23 168.232C2475.52 157.819 2496.11 161.405 2506.21 176.241Z" fill="#594E71"/>
<path d="M2543.3 196.958C2553.4 211.794 2549.2 232.263 2533.9 242.676C2518.61 253.089 2498.02 249.503 2487.92 234.667C2477.82 219.83 2482.03 199.361 2497.32 188.948C2512.61 178.535 2533.2 182.121 2543.3 196.958Z" fill="#594E71"/>
<path d="M2487.92 234.667C2496.94 247.905 2491.29 267.457 2475.31 278.336C2459.34 289.215 2439.08 287.303 2430.06 274.064C2421.05 260.825 2426.69 241.274 2442.67 230.395C2458.65 219.515 2478.91 221.428 2487.92 234.667Z" fill="#594E71"/>
<path d="M2481.43 194.929C2496.97 217.754 2491.36 250.474 2467.85 266.483C2444.34 282.491 2411.83 275.724 2396.29 252.899C2380.75 230.074 2387.21 198.593 2410.72 182.585C2434.23 166.577 2465.89 172.103 2481.43 194.929Z" fill="#594E71"/>
<path d="M2448.84 270.211C2464.38 293.036 2458.77 325.757 2435.26 341.765C2411.75 357.773 2379.24 351.007 2363.7 328.181C2348.16 305.356 2354.62 273.875 2378.13 257.867C2401.64 241.859 2433.3 247.385 2448.84 270.211Z" fill="#594E71"/>
<path d="M2469.85 149.695C2479.95 164.532 2475.75 185 2460.45 195.413C2445.16 205.827 2424.57 202.241 2414.47 187.404C2404.37 172.568 2408.58 152.099 2423.87 141.686C2439.16 131.273 2459.75 134.859 2469.85 149.695Z" fill="#594E71"/>
<path d="M2598.58 179.395C2592.42 197.426 2572.59 206.977 2554.3 200.727C2536.01 194.478 2526.18 174.795 2532.34 156.764C2538.5 138.734 2558.32 129.183 2576.61 135.433C2594.9 141.682 2604.74 161.365 2598.58 179.395Z" fill="#594E71"/>
<path d="M2627.38 175.499C2621.22 193.53 2601.4 203.08 2583.11 196.831C2564.82 190.582 2554.98 170.899 2561.14 152.868C2567.3 134.838 2587.13 125.287 2605.42 131.537C2623.71 137.786 2633.54 157.469 2627.38 175.499Z" fill="#594E71"/>
<path d="M2616.39 207.673C2610.23 225.704 2590.41 235.255 2572.12 229.005C2553.83 222.756 2543.99 203.073 2550.15 185.042C2556.31 167.012 2576.13 157.461 2594.42 163.711C2612.72 169.96 2622.55 189.643 2616.39 207.673Z" fill="#594E71"/>
<path d="M2778.19 206.97C2769.26 233.101 2739.72 248.25 2712.8 239.054C2685.89 229.859 2671.79 199.801 2680.72 173.67C2689.65 147.539 2718.7 133.81 2745.62 143.005C2772.53 152.201 2787.12 180.839 2778.19 206.97Z" fill="#594E71"/>
<path d="M2721.71 205.613C2715.91 222.599 2697.01 231.519 2679.51 225.537C2662 219.556 2652.51 200.938 2658.31 183.952C2664.11 166.967 2683.01 158.047 2700.52 164.028C2718.03 170.01 2727.52 188.628 2721.71 205.613Z" fill="#594E71"/>
<path d="M2727.41 247.715C2721.6 264.7 2702.71 273.621 2685.2 267.639C2667.69 261.658 2658.2 243.04 2664.01 226.054C2669.81 209.069 2688.71 200.148 2706.21 206.13C2723.72 212.112 2733.21 230.73 2727.41 247.715Z" fill="#594E71"/>
<path d="M2664.01 226.054C2658.83 241.21 2639.8 248.431 2621.51 242.181C2603.22 235.932 2592.59 218.579 2597.77 203.423C2602.94 188.267 2621.97 181.047 2640.26 187.296C2658.55 193.545 2669.18 210.898 2664.01 226.054Z" fill="#594E71"/>
<path d="M2691.89 197.01C2682.97 223.142 2653.42 238.29 2626.51 229.095C2599.59 219.899 2585.5 189.842 2594.42 163.711C2603.35 137.579 2632.41 123.85 2659.32 133.046C2686.24 142.241 2700.82 170.879 2691.89 197.01Z" fill="#594E71"/>
<path d="M2612.12 216.129C2603.19 242.261 2573.65 257.409 2546.73 248.214C2519.82 239.018 2505.72 208.961 2514.65 182.83C2523.58 156.698 2552.63 142.969 2579.55 152.165C2606.46 161.36 2621.05 189.998 2612.12 216.129Z" fill="#594E71"/>
<path d="M2721.12 160.599C2715.32 177.584 2696.42 186.504 2678.91 180.523C2661.41 174.541 2651.92 155.923 2657.72 138.938C2663.52 121.952 2682.42 113.032 2699.93 119.014C2717.44 124.995 2726.93 143.613 2721.12 160.599Z" fill="#594E71"/>
<path d="M2753.27 206.945C2753.68 225.995 2738.34 241.773 2719.02 242.187C2699.69 242.602 2683.7 227.495 2683.29 208.446C2682.88 189.396 2698.21 173.618 2717.54 173.203C2736.87 172.789 2752.86 187.896 2753.27 206.945Z" fill="#594E71"/>
<path d="M2778.99 193.391C2779.39 212.44 2764.06 228.219 2744.73 228.633C2725.41 229.047 2709.41 213.941 2709 194.891C2708.59 175.842 2723.93 160.063 2743.25 159.649C2762.58 159.235 2778.58 174.341 2778.99 193.391Z" fill="#594E71"/>
<path d="M2779.72 227.383C2780.12 246.432 2764.79 262.211 2745.46 262.625C2726.14 263.04 2710.14 247.933 2709.73 228.883C2709.32 209.834 2724.66 194.055 2743.98 193.641C2763.31 193.227 2779.31 208.333 2779.72 227.383Z" fill="#594E71"/>
<path d="M2931.43 171.143C2932.02 198.751 2909.48 223.126 2881.04 223.735C2852.61 224.345 2829.04 200.959 2828.45 173.351C2827.86 145.743 2850.43 122.868 2878.87 122.259C2907.3 121.649 2930.83 143.535 2931.43 171.143Z" fill="#594E71"/>
<path d="M2810.94 144.811C2811.32 162.756 2796.64 177.625 2778.14 178.021C2759.64 178.418 2744.34 164.192 2743.95 146.247C2743.57 128.302 2758.25 113.433 2776.75 113.036C2795.24 112.64 2810.55 126.866 2810.94 144.811Z" fill="#594E71"/>
<path d="M2897.73 226.853C2898.12 244.798 2883.43 259.667 2864.94 260.064C2846.44 260.46 2831.13 246.234 2830.75 228.289C2830.36 210.344 2845.04 195.475 2863.54 195.079C2882.04 194.682 2897.35 208.908 2897.73 226.853Z" fill="#594E71"/>
<path d="M2830.75 228.289C2831.09 244.302 2815.7 257.618 2796.38 258.033C2777.05 258.447 2761.11 245.802 2760.76 229.79C2760.42 213.777 2775.81 200.46 2795.13 200.046C2814.46 199.632 2830.4 212.277 2830.75 228.289Z" fill="#594E71"/>
<path d="M2846.96 191.433C2847.55 219.041 2825.01 243.416 2796.58 244.025C2768.14 244.635 2744.58 221.249 2743.98 193.641C2743.39 166.033 2765.96 143.158 2794.4 142.549C2822.84 141.939 2846.37 163.825 2846.96 191.433Z" fill="#594E71"/>
<path d="M2794.4 173.544C2794.99 201.152 2772.45 225.526 2744.02 226.136C2715.58 226.746 2692.02 203.359 2691.42 175.752C2690.83 148.144 2713.4 125.269 2741.84 124.659C2770.28 124.049 2793.81 145.936 2794.4 173.544Z" fill="#594E71"/>
<path d="M2861.9 147.197C2862.29 165.142 2847.6 180.011 2829.11 180.407C2810.61 180.804 2795.3 166.578 2794.92 148.633C2794.53 130.688 2809.22 115.819 2827.71 115.422C2846.21 115.026 2861.52 129.252 2861.9 147.197Z" fill="#594E71"/>
<path d="M584.293 185.8C585.404 204.821 570.662 221.155 551.365 222.282C532.068 223.41 515.524 208.904 514.412 189.883C513.301 170.861 528.043 154.527 547.34 153.4C566.637 152.272 583.182 166.778 584.293 185.8Z" fill="#594E71"/>
<path d="M609.49 171.305C610.602 190.327 595.859 206.661 576.562 207.788C557.265 208.916 540.721 194.41 539.61 175.388C538.498 156.367 553.241 140.033 572.538 138.906C591.835 137.778 608.379 152.284 609.49 171.305Z" fill="#594E71"/>
<path d="M611.474 205.247C612.585 224.269 597.843 240.603 578.546 241.73C559.249 242.858 542.704 228.352 541.593 209.33C540.481 190.309 555.224 173.975 574.521 172.848C593.818 171.72 610.362 186.226 611.474 205.247Z" fill="#594E71"/>
<path d="M688.372 201.255C689.982 228.823 668.358 254.013 639.963 255.672C611.569 257.331 587.158 234.83 585.547 207.263C583.936 179.696 605.649 156.003 634.043 154.344C662.437 152.685 686.761 173.688 688.372 201.255Z" fill="#594E71"/>
<path d="M708.205 163.534C709.252 181.453 695.128 196.854 676.658 197.933C658.188 199.012 642.366 185.361 641.319 167.442C640.272 149.524 654.397 134.123 672.867 133.044C691.337 131.964 707.158 145.616 708.205 163.534Z" fill="#594E71"/>
<path d="M729.389 200.361C730.436 218.28 716.312 233.681 697.842 234.76C679.372 235.839 663.55 222.188 662.503 204.269C661.457 186.351 675.581 170.95 694.051 169.871C712.521 168.791 728.342 182.443 729.389 200.361Z" fill="#594E71"/>
<path d="M652.453 152.267C653.387 168.256 638.501 182.132 619.204 183.259C599.907 184.387 583.507 172.339 582.572 156.35C581.638 140.361 596.524 126.485 615.821 125.358C635.118 124.23 651.519 136.278 652.453 152.267Z" fill="#594E71"/>
<path d="M531 226.5C531 245.554 515.33 261 496 261C476.67 261 461 245.554 461 226.5C461 207.446 476.67 192 496 192C515.33 192 531 207.446 531 226.5Z" fill="#48366F"/>
<path d="M557 213.5C557 232.554 541.33 248 522 248C502.67 248 487 232.554 487 213.5C487 194.446 502.67 179 522 179C541.33 179 557 194.446 557 213.5Z" fill="#48366F"/>
<path d="M557 247.5C557 266.554 541.33 282 522 282C502.67 282 487 266.554 487 247.5C487 228.446 502.67 213 522 213C541.33 213 557 228.446 557 247.5Z" fill="#48366F"/>
<path d="M634 248C634 275.614 610.943 299.5 582.5 299.5C554.057 299.5 531 275.614 531 248C531 220.386 554.057 198 582.5 198C610.943 198 634 220.386 634 248Z" fill="#48366F"/>
<path d="M656 211.5C656 229.449 641.002 244 622.5 244C603.998 244 589 229.449 589 211.5C589 193.551 603.998 179 622.5 179C641.002 179 656 193.551 656 211.5Z" fill="#48366F"/>
<path d="M675 249.5C675 267.449 660.002 282 641.5 282C622.998 282 608 267.449 608 249.5C608 231.551 622.998 217 641.5 217C660.002 217 675 231.551 675 249.5Z" fill="#48366F"/>
<path d="M601 197C601 213.016 585.33 226 566 226C546.67 226 531 213.016 531 197C531 180.984 546.67 168 566 168C585.33 168 601 180.984 601 197Z" fill="#48366F"/>
<path d="M762.576 250.555C762.425 231.502 777.971 215.931 797.301 215.777C816.63 215.624 832.422 230.945 832.574 249.998C832.726 269.051 817.179 284.621 797.85 284.775C778.52 284.929 762.728 269.608 762.576 250.555Z" fill="#48366F"/>
<path d="M736.681 263.761C736.529 244.708 752.076 229.138 771.405 228.984C790.734 228.83 806.527 244.151 806.678 263.204C806.83 282.258 791.283 297.828 771.954 297.982C752.625 298.136 736.832 282.815 736.681 263.761Z" fill="#48366F"/>
<path d="M736.41 229.762C736.258 210.709 751.805 195.139 771.134 194.985C790.464 194.831 806.256 210.152 806.408 229.205C806.559 248.259 791.013 263.829 771.683 263.983C752.354 264.137 736.562 248.816 736.41 229.762Z" fill="#48366F"/>
<path d="M659.409 229.875C659.189 202.262 682.055 178.193 710.497 177.967C738.939 177.741 762.186 201.442 762.405 229.056C762.625 256.669 739.747 279.237 711.305 279.464C682.863 279.69 659.628 257.488 659.409 229.875Z" fill="#48366F"/>
<path d="M637.7 266.549C637.557 248.6 652.439 233.931 670.94 233.783C689.441 233.636 704.555 248.067 704.698 266.016C704.84 283.965 689.958 298.634 671.457 298.781C652.956 298.929 637.842 284.498 637.7 266.549Z" fill="#48366F"/>
<path d="M618.398 228.701C618.255 210.753 633.137 196.083 651.638 195.936C670.139 195.789 685.253 210.22 685.396 228.168C685.539 246.117 670.656 260.787 652.155 260.934C633.654 261.081 618.541 246.65 618.398 228.701Z" fill="#48366F"/>
<path d="M692.813 280.611C692.686 264.595 708.252 251.487 727.581 251.333C746.911 251.18 762.684 264.038 762.811 280.054C762.939 296.07 747.372 309.178 728.043 309.331C708.714 309.485 692.941 296.627 692.813 280.611Z" fill="#48366F"/>
<path d="M955.576 235.555C955.425 216.502 970.971 200.931 990.301 200.777C1009.63 200.624 1025.42 215.945 1025.57 234.998C1025.73 254.051 1010.18 269.621 990.85 269.775C971.52 269.929 955.728 254.608 955.576 235.555Z" fill="#48366F"/>
<path d="M929.681 248.761C929.529 229.708 945.076 214.138 964.405 213.984C983.734 213.83 999.527 229.151 999.678 248.204C999.83 267.258 984.283 282.828 964.954 282.982C945.625 283.136 929.832 267.815 929.681 248.761Z" fill="#48366F"/>
<path d="M929.41 214.762C929.258 195.709 944.805 180.139 964.134 179.985C983.464 179.831 999.256 195.152 999.408 214.205C999.559 233.259 984.013 248.829 964.683 248.983C945.354 249.137 929.562 233.816 929.41 214.762Z" fill="#48366F"/>
<path d="M852.409 214.875C852.189 187.262 875.055 163.193 903.497 162.967C931.939 162.741 955.186 186.442 955.405 214.056C955.625 241.669 932.747 264.237 904.305 264.464C875.863 264.69 852.628 242.488 852.409 214.875Z" fill="#48366F"/>
<path d="M830.7 251.549C830.557 233.6 845.439 218.931 863.94 218.783C882.441 218.636 897.555 233.067 897.698 251.016C897.84 268.965 882.958 283.634 864.457 283.781C845.956 283.929 830.842 269.498 830.7 251.549Z" fill="#48366F"/>
<path d="M811.398 213.701C811.255 195.753 826.137 181.083 844.638 180.936C863.139 180.789 878.253 195.22 878.396 213.168C878.539 231.117 863.656 245.787 845.155 245.934C826.654 246.081 811.541 231.65 811.398 213.701Z" fill="#48366F"/>
<path d="M885.813 265.611C885.686 249.595 901.252 236.487 920.581 236.333C939.911 236.18 955.684 249.038 955.811 265.054C955.939 281.07 940.372 294.178 921.043 294.331C901.714 294.485 885.941 281.627 885.813 265.611Z" fill="#48366F"/>
<path d="M1126.58 265.555C1126.42 246.502 1141.97 230.931 1161.3 230.777C1180.63 230.624 1196.42 245.945 1196.57 264.998C1196.73 284.051 1181.18 299.621 1161.85 299.775C1142.52 299.929 1126.73 284.608 1126.58 265.555Z" fill="#48366F"/>
<path d="M1100.68 278.761C1100.53 259.708 1116.08 244.138 1135.4 243.984C1154.73 243.83 1170.53 259.151 1170.68 278.204C1170.83 297.258 1155.28 312.828 1135.95 312.982C1116.62 313.136 1100.83 297.815 1100.68 278.761Z" fill="#48366F"/>
<path d="M1100.41 244.762C1100.26 225.709 1115.81 210.139 1135.13 209.985C1154.46 209.831 1170.26 225.152 1170.41 244.205C1170.56 263.259 1155.01 278.829 1135.68 278.983C1116.35 279.137 1100.56 263.816 1100.41 244.762Z" fill="#48366F"/>
<path d="M1023.41 244.875C1023.19 217.262 1046.06 193.193 1074.5 192.967C1102.94 192.741 1126.19 216.442 1126.41 244.056C1126.62 271.669 1103.75 294.237 1075.3 294.464C1046.86 294.69 1023.63 272.488 1023.41 244.875Z" fill="#48366F"/>
<path d="M1001.7 281.549C1001.56 263.6 1016.44 248.931 1034.94 248.783C1053.44 248.636 1068.55 263.067 1068.7 281.016C1068.84 298.965 1053.96 313.634 1035.46 313.781C1016.96 313.929 1001.84 299.498 1001.7 281.549Z" fill="#48366F"/>
<path d="M982.398 243.701C982.255 225.753 997.137 211.083 1015.64 210.936C1034.14 210.789 1049.25 225.22 1049.4 243.168C1049.54 261.117 1034.66 275.787 1016.16 275.934C997.654 276.081 982.541 261.65 982.398 243.701Z" fill="#48366F"/>
<path d="M1056.81 295.611C1056.69 279.595 1072.25 266.487 1091.58 266.333C1110.91 266.18 1126.68 279.038 1126.81 295.054C1126.94 311.07 1111.37 324.178 1092.04 324.331C1072.71 324.485 1056.94 311.627 1056.81 295.611Z" fill="#48366F"/>
<path d="M1272.58 230.555C1272.42 211.502 1287.97 195.931 1307.3 195.777C1326.63 195.624 1342.42 210.945 1342.57 229.998C1342.73 249.051 1327.18 264.621 1307.85 264.775C1288.52 264.929 1272.73 249.608 1272.58 230.555Z" fill="#48366F"/>
<path d="M1246.68 243.761C1246.53 224.708 1262.08 209.138 1281.4 208.984C1300.73 208.83 1316.53 224.151 1316.68 243.204C1316.83 262.258 1301.28 277.828 1281.95 277.982C1262.62 278.136 1246.83 262.815 1246.68 243.761Z" fill="#48366F"/>
<path d="M1246.41 209.762C1246.26 190.709 1261.81 175.139 1281.13 174.985C1300.46 174.831 1316.26 190.152 1316.41 209.205C1316.56 228.259 1301.01 243.829 1281.68 243.983C1262.35 244.137 1246.56 228.816 1246.41 209.762Z" fill="#48366F"/>
<path d="M1169.41 209.875C1169.19 182.262 1192.06 158.193 1220.5 157.967C1248.94 157.741 1272.19 181.442 1272.41 209.056C1272.62 236.669 1249.75 259.237 1221.3 259.464C1192.86 259.69 1169.63 237.488 1169.41 209.875Z" fill="#48366F"/>
<path d="M1147.7 246.549C1147.56 228.6 1162.44 213.931 1180.94 213.783C1199.44 213.636 1214.55 228.067 1214.7 246.016C1214.84 263.965 1199.96 278.634 1181.46 278.781C1162.96 278.929 1147.84 264.498 1147.7 246.549Z" fill="#48366F"/>
<path d="M1128.4 208.701C1128.26 190.753 1143.14 176.083 1161.64 175.936C1180.14 175.789 1195.25 190.22 1195.4 208.168C1195.54 226.117 1180.66 240.787 1162.16 240.934C1143.65 241.081 1128.54 226.65 1128.4 208.701Z" fill="#48366F"/>
<path d="M1202.81 260.611C1202.69 244.595 1218.25 231.487 1237.58 231.333C1256.91 231.18 1272.68 244.038 1272.81 260.054C1272.94 276.07 1257.37 289.178 1238.04 289.331C1218.71 289.485 1202.94 276.627 1202.81 260.611Z" fill="#48366F"/>
<path d="M1355.86 250.34C1363.02 267.996 1354.3 288.2 1336.39 295.466C1318.48 302.733 1298.15 294.31 1290.99 276.653C1283.83 258.997 1292.54 238.793 1310.45 231.527C1328.37 224.261 1348.69 232.684 1355.86 250.34Z" fill="#48366F"/>
<path d="M1375.06 228.52C1382.23 246.176 1373.51 266.38 1355.6 273.646C1337.69 280.912 1317.36 272.49 1310.2 254.833C1303.03 237.177 1311.75 216.973 1329.66 209.707C1347.57 202.441 1367.9 210.863 1375.06 228.52Z" fill="#48366F"/>
<path d="M1387.84 260.026C1395.01 277.683 1386.29 297.886 1368.38 305.153C1350.47 312.419 1330.14 303.996 1322.98 286.34C1315.82 268.683 1324.53 248.479 1342.44 241.213C1360.35 233.947 1380.68 242.37 1387.84 260.026Z" fill="#48366F"/>
<path d="M1459.38 231.545C1469.76 257.134 1457.38 287.935 1431.02 298.627C1404.66 309.319 1374.32 295.852 1363.94 270.263C1353.56 244.674 1366.51 215.263 1392.87 204.571C1419.22 193.879 1449 205.956 1459.38 231.545Z" fill="#48366F"/>
<path d="M1466.05 189.452C1472.8 206.085 1464.37 225.206 1447.22 232.161C1430.08 239.116 1410.71 231.27 1403.96 214.638C1397.22 198.005 1405.65 178.883 1422.79 171.928C1439.93 164.974 1459.3 172.819 1466.05 189.452Z" fill="#48366F"/>
<path d="M1497.94 217.523C1504.69 234.156 1496.26 253.277 1479.11 260.232C1461.97 267.187 1442.6 259.341 1435.86 242.708C1429.11 226.076 1437.54 206.954 1454.68 199.999C1471.83 193.044 1491.19 200.89 1497.94 217.523Z" fill="#48366F"/>
<path d="M1409.63 196.69C1415.65 211.532 1406.01 229.454 1388.1 236.72C1370.19 243.986 1350.79 237.845 1344.77 223.003C1338.75 208.162 1348.39 190.24 1366.3 182.974C1384.21 175.708 1403.61 181.849 1409.63 196.69Z" fill="#48366F"/>
<path d="M1504.26 220.38C1499.42 238.807 1480.34 249.76 1461.64 244.843C1442.95 239.927 1431.72 221.004 1436.57 202.576C1441.41 184.149 1460.5 173.196 1479.19 178.112C1497.88 183.029 1509.11 201.952 1504.26 220.38Z" fill="#48366F"/>
<path d="M1532.72 214.42C1527.87 232.847 1508.79 243.8 1490.09 238.884C1471.4 233.967 1460.17 215.044 1465.02 196.616C1469.86 178.189 1488.95 167.236 1507.64 172.153C1526.34 177.069 1537.56 195.992 1532.72 214.42Z" fill="#48366F"/>
<path d="M1524.07 247.302C1519.22 265.729 1500.14 276.682 1481.44 271.766C1462.75 266.849 1451.52 247.926 1456.37 229.498C1461.22 211.071 1480.3 200.118 1498.99 205.034C1517.69 209.951 1528.91 228.874 1524.07 247.302Z" fill="#48366F"/>
<path d="M1598.41 267.369C1591.39 294.075 1563.01 311.311 1535.5 304.077C1508 296.843 1491.77 267.879 1498.8 241.173C1505.82 214.466 1533.81 198.681 1561.32 205.915C1588.83 213.149 1605.43 240.663 1598.41 267.369Z" fill="#48366F"/>
<path d="M1628.97 237.664C1624.4 255.023 1606.2 265.281 1588.3 260.575C1570.41 255.87 1559.61 237.983 1564.17 220.624C1568.74 203.265 1586.94 193.007 1604.84 197.713C1622.73 202.418 1633.53 220.305 1628.97 237.664Z" fill="#48366F"/>
<path d="M1637.68 279.247C1633.11 296.606 1614.91 306.864 1597.02 302.158C1579.12 297.453 1568.32 279.566 1572.88 262.207C1577.45 244.848 1595.65 234.59 1613.55 239.296C1631.44 244.001 1642.24 261.888 1637.68 279.247Z" fill="#48366F"/>
<path d="M1579.47 209.653C1575.39 225.142 1556.93 233.714 1538.24 228.798C1519.55 223.881 1507.69 207.339 1511.77 191.85C1515.84 176.36 1534.3 167.789 1552.99 172.705C1571.69 177.621 1583.54 194.163 1579.47 209.653Z" fill="#48366F"/>
<path d="M1657.26 210.38C1652.42 228.807 1633.34 239.76 1614.64 234.843C1595.95 229.927 1584.72 211.004 1589.57 192.576C1594.41 174.149 1613.5 163.196 1632.19 168.112C1650.88 173.029 1662.11 191.952 1657.26 210.38Z" fill="#48366F"/>
<path d="M1685.72 204.42C1680.87 222.847 1661.79 233.8 1643.09 228.884C1624.4 223.967 1613.17 205.044 1618.02 186.616C1622.86 168.189 1641.95 157.236 1660.64 162.153C1679.34 167.069 1690.56 185.992 1685.72 204.42Z" fill="#48366F"/>
<path d="M1677.07 237.302C1672.22 255.729 1653.14 266.682 1634.44 261.766C1615.75 256.849 1604.52 237.926 1609.37 219.498C1614.22 201.071 1633.3 190.118 1651.99 195.034C1670.69 199.951 1681.91 218.874 1677.07 237.302Z" fill="#48366F"/>
<path d="M1751.41 257.369C1744.39 284.075 1716.01 301.311 1688.5 294.077C1661 286.843 1644.77 257.879 1651.8 231.173C1658.82 204.466 1686.81 188.681 1714.32 195.915C1741.83 203.149 1758.43 230.663 1751.41 257.369Z" fill="#48366F"/>
<path d="M1781.97 227.664C1777.4 245.023 1759.2 255.281 1741.3 250.575C1723.41 245.87 1712.61 227.983 1717.17 210.624C1721.74 193.265 1739.94 183.007 1757.84 187.713C1775.73 192.418 1786.53 210.305 1781.97 227.664Z" fill="#48366F"/>
<path d="M1790.68 269.247C1786.11 286.606 1767.91 296.864 1750.02 292.158C1732.12 287.453 1721.32 269.566 1725.88 252.207C1730.45 234.848 1748.65 224.59 1766.55 229.296C1784.44 234.001 1795.24 251.888 1790.68 269.247Z" fill="#48366F"/>
<path d="M1732.47 199.653C1728.39 215.142 1709.93 223.714 1691.24 218.798C1672.55 213.881 1660.69 197.339 1664.77 181.85C1668.84 166.36 1687.3 157.789 1705.99 162.705C1724.69 167.621 1736.54 184.163 1732.47 199.653Z" fill="#48366F"/>
<path d="M1810.53 237.064C1809.76 256.103 1793.48 270.904 1774.16 270.124C1754.85 269.344 1739.81 253.278 1740.58 234.24C1741.35 215.201 1757.63 200.4 1776.95 201.18C1796.26 201.96 1811.3 218.026 1810.53 237.064Z" fill="#48366F"/>
<path d="M1837.03 225.124C1836.26 244.162 1819.98 258.964 1800.67 258.184C1781.35 257.404 1766.32 241.338 1767.09 222.299C1767.86 203.261 1784.14 188.46 1803.45 189.24C1822.76 190.02 1837.8 206.086 1837.03 225.124Z" fill="#48366F"/>
<path d="M1835.66 259.096C1834.89 278.135 1818.61 292.936 1799.29 292.156C1779.98 291.376 1764.95 275.31 1765.71 256.272C1766.48 237.233 1782.76 222.432 1802.08 223.212C1821.39 223.992 1836.43 240.058 1835.66 259.096Z" fill="#48366F"/>
<path d="M1912.58 262.703C1911.46 290.295 1887.46 313.231 1859.04 312.083C1830.62 310.935 1808.54 286.139 1809.66 258.547C1810.77 230.955 1834.72 209.518 1863.13 210.666C1891.55 211.813 1913.69 235.111 1912.58 262.703Z" fill="#48366F"/>
<path d="M1936.03 227.121C1935.31 245.055 1919.73 258.989 1901.25 258.242C1882.76 257.496 1868.36 242.352 1869.08 224.417C1869.81 206.482 1885.38 192.549 1903.87 193.295C1922.36 194.042 1936.75 209.186 1936.03 227.121Z" fill="#48366F"/>
<path d="M1953.48 265.856C1952.76 283.791 1937.18 297.725 1918.7 296.978C1900.21 296.231 1885.81 281.087 1886.54 263.153C1887.26 245.218 1902.83 231.284 1921.32 232.031C1939.81 232.778 1954.21 247.922 1953.48 265.856Z" fill="#48366F"/>
<path d="M1881.66 210.413C1881.01 226.416 1864.83 238.757 1845.52 237.977C1826.2 237.197 1811.07 223.592 1811.72 207.588C1812.36 191.585 1828.54 179.244 1847.86 180.024C1867.17 180.804 1882.31 194.41 1881.66 210.413Z" fill="#48366F"/>
<path d="M1975.89 224.277C1975.12 243.315 1958.84 258.117 1939.53 257.337C1920.21 256.557 1905.18 240.491 1905.95 221.452C1906.71 202.414 1923 187.613 1942.31 188.393C1961.62 189.173 1976.66 205.239 1975.89 224.277Z" fill="#48366F"/>
<path d="M2002.39 212.337C2001.62 231.375 1985.34 246.176 1966.03 245.396C1946.71 244.616 1931.68 228.55 1932.45 209.512C1933.22 190.474 1949.5 175.673 1968.81 176.453C1988.13 177.233 2003.16 193.298 2002.39 212.337Z" fill="#48366F"/>
<path d="M2001.02 246.309C2000.25 265.347 1983.97 280.149 1964.66 279.369C1945.34 278.589 1930.31 262.523 1931.08 243.484C1931.85 224.446 1948.13 209.645 1967.44 210.425C1986.75 211.205 2001.79 227.271 2001.02 246.309Z" fill="#48366F"/>
<path d="M2077.94 249.916C2076.82 277.507 2052.82 300.443 2024.4 299.296C1995.98 298.148 1973.91 273.351 1975.02 245.759C1976.14 218.168 2000.08 196.731 2028.5 197.878C2056.92 199.026 2079.05 222.324 2077.94 249.916Z" fill="#48366F"/>
<path d="M2101.39 214.333C2100.67 232.268 2085.09 246.202 2066.61 245.455C2048.12 244.708 2033.72 229.564 2034.45 211.63C2035.17 193.695 2050.74 179.761 2069.23 180.508C2087.72 181.254 2102.12 196.399 2101.39 214.333Z" fill="#48366F"/>
<path d="M2118.84 253.069C2118.12 271.004 2102.55 284.937 2084.06 284.191C2065.57 283.444 2051.17 268.3 2051.9 250.365C2052.62 232.431 2068.2 218.497 2086.68 219.244C2105.17 219.99 2119.57 235.134 2118.84 253.069Z" fill="#48366F"/>
<path d="M2047.02 197.626C2046.38 213.629 2030.19 225.97 2010.88 225.19C1991.57 224.41 1976.43 210.804 1977.08 194.801C1977.73 178.798 1993.91 166.457 2013.22 167.237C2032.53 168.017 2047.67 181.622 2047.02 197.626Z" fill="#48366F"/>
<path d="M2159.89 230.277C2159.12 249.315 2142.84 264.117 2123.53 263.337C2104.21 262.557 2089.18 246.491 2089.95 227.452C2090.71 208.414 2107 193.613 2126.31 194.393C2145.62 195.173 2160.66 211.239 2159.89 230.277Z" fill="#48366F"/>
<path d="M2186.39 218.337C2185.62 237.375 2169.34 252.176 2150.03 251.396C2130.71 250.616 2115.68 234.55 2116.45 215.512C2117.22 196.474 2133.5 181.673 2152.81 182.453C2172.13 183.233 2187.16 199.298 2186.39 218.337Z" fill="#48366F"/>
<path d="M2185.02 252.309C2184.25 271.347 2167.97 286.149 2148.66 285.369C2129.34 284.589 2114.31 268.523 2115.08 249.484C2115.85 230.446 2132.13 215.645 2151.44 216.425C2170.75 217.205 2185.79 233.271 2185.02 252.309Z" fill="#48366F"/>
<path d="M2261.94 255.916C2260.82 283.507 2236.82 306.443 2208.4 305.296C2179.98 304.148 2157.91 279.351 2159.02 251.759C2160.14 224.168 2184.08 202.731 2212.5 203.878C2240.92 205.026 2263.05 228.324 2261.94 255.916Z" fill="#48366F"/>
<path d="M2285.39 220.333C2284.67 238.268 2269.09 252.202 2250.61 251.455C2232.12 250.708 2217.72 235.564 2218.45 217.63C2219.17 199.695 2234.74 185.761 2253.23 186.508C2271.72 187.254 2286.12 202.399 2285.39 220.333Z" fill="#48366F"/>
<path d="M2302.84 259.069C2302.12 277.004 2286.55 290.937 2268.06 290.191C2249.57 289.444 2235.17 274.3 2235.9 256.365C2236.62 238.431 2252.2 224.497 2270.68 225.244C2289.17 225.99 2303.57 241.134 2302.84 259.069Z" fill="#48366F"/>
<path d="M2231.02 203.626C2230.38 219.629 2214.19 231.97 2194.88 231.19C2175.57 230.41 2160.43 216.804 2161.08 200.801C2161.73 184.798 2177.91 172.457 2197.22 173.237C2216.53 174.017 2231.67 187.622 2231.02 203.626Z" fill="#48366F"/>
<path d="M2310.27 202.045C2295.7 214.32 2273.79 212.286 2261.34 197.502C2248.89 182.718 2250.6 160.782 2265.18 148.507C2279.75 136.232 2301.66 138.266 2314.11 153.05C2326.57 167.834 2324.85 189.77 2310.27 202.045Z" fill="#48366F"/>
<path d="M2336.97 213.555C2322.39 225.83 2300.49 223.796 2288.03 209.012C2275.58 194.228 2277.3 172.292 2291.87 160.017C2306.44 147.742 2328.35 149.776 2340.81 164.56C2353.26 179.344 2351.54 201.28 2336.97 213.555Z" fill="#48366F"/>
<path d="M2310.96 235.459C2296.39 247.734 2274.48 245.7 2262.03 230.916C2249.58 216.132 2251.29 194.196 2265.87 181.921C2280.44 169.646 2302.35 171.68 2314.8 186.464C2327.25 201.248 2325.54 223.184 2310.96 235.459Z" fill="#48366F"/>
<path d="M2360.19 294.673C2339.07 312.463 2305.94 310.216 2287.62 288.463C2269.3 266.709 2272.71 233.686 2293.83 215.896C2314.95 198.106 2346.93 201.319 2365.25 223.073C2383.57 244.826 2381.31 276.883 2360.19 294.673Z" fill="#48366F"/>
<path d="M2402.28 287.985C2388.55 299.548 2367.76 297.451 2355.84 283.301C2343.92 269.15 2345.38 248.305 2359.11 236.741C2372.84 225.178 2393.63 227.275 2405.55 241.425C2417.47 255.576 2416 276.421 2402.28 287.985Z" fill="#48366F"/>
<path d="M2385.45 326.997C2371.73 338.561 2350.93 336.464 2339.01 322.313C2327.1 308.163 2328.56 287.317 2342.29 275.754C2356.02 264.19 2376.81 266.288 2388.73 280.438C2400.65 294.588 2399.18 315.434 2385.45 326.997Z" fill="#48366F"/>
<path d="M2377.93 236.578C2365.68 246.896 2345.66 243.276 2333.2 228.492C2320.75 213.708 2320.59 193.358 2332.84 183.04C2345.09 172.722 2365.11 176.342 2377.56 191.126C2390.02 205.91 2390.18 226.26 2377.93 236.578Z" fill="#48366F"/>
<path d="M2408.32 254.455C2418.78 270.379 2414.17 291.893 2398.01 302.508C2381.86 313.124 2360.28 308.821 2349.82 292.897C2339.35 276.974 2343.97 255.46 2360.12 244.844C2376.28 234.229 2397.85 238.532 2408.32 254.455Z" fill="#48366F"/>
<path d="M2422.91 229.313C2433.37 245.236 2428.76 266.75 2412.6 277.366C2396.45 287.981 2374.87 283.678 2364.41 267.754C2353.94 251.831 2358.56 230.317 2374.71 219.701C2390.87 209.086 2412.44 213.389 2422.91 229.313Z" fill="#48366F"/>
<path d="M2441.58 257.727C2452.04 273.65 2447.43 295.164 2431.28 305.78C2415.12 316.395 2393.54 312.092 2383.08 296.169C2372.62 280.245 2377.23 258.731 2393.38 248.116C2409.54 237.5 2431.11 241.803 2441.58 257.727Z" fill="#48366F"/>
<path d="M2506.2 215.859C2521.37 238.936 2515.22 271.56 2491.45 287.18C2467.68 302.8 2435.29 295.501 2420.12 272.423C2404.96 249.346 2411.94 217.975 2435.71 202.355C2459.48 186.736 2491.04 192.781 2506.2 215.859Z" fill="#48366F"/>
<path d="M2504.54 173.274C2514.4 188.274 2509.86 208.671 2494.4 218.831C2478.93 228.992 2458.41 225.068 2448.55 210.068C2438.69 195.067 2443.24 174.671 2458.7 164.51C2474.16 154.35 2494.69 158.273 2504.54 173.274Z" fill="#48366F"/>
<path d="M2541.29 194.596C2551.15 209.597 2546.6 229.994 2531.14 240.154C2515.68 250.315 2495.16 246.391 2485.3 231.391C2475.44 216.39 2479.98 195.993 2495.45 185.833C2510.91 175.672 2531.43 179.596 2541.29 194.596Z" fill="#48366F"/>
<path d="M2450.62 191.36C2459.41 204.745 2453.45 224.201 2437.29 234.817C2421.14 245.432 2400.91 243.187 2392.12 229.802C2383.32 216.417 2389.29 196.961 2405.44 186.345C2421.6 175.73 2441.82 177.975 2450.62 191.36Z" fill="#48366F"/>
<path d="M2544.63 252.969C2555.09 268.893 2550.48 290.407 2534.32 301.022C2518.17 311.638 2496.59 307.335 2486.13 291.411C2475.66 275.488 2480.28 253.974 2496.43 243.358C2512.58 232.743 2534.16 237.046 2544.63 252.969Z" fill="#48366F"/>
<path d="M2559.22 227.827C2569.68 243.75 2565.07 265.264 2548.91 275.88C2532.76 286.495 2511.18 282.192 2500.72 266.268C2490.25 250.345 2494.86 228.831 2511.02 218.216C2527.17 207.6 2548.75 211.903 2559.22 227.827Z" fill="#48366F"/>
<path d="M2577.89 256.241C2588.35 272.164 2583.74 293.678 2567.58 304.294C2551.43 314.909 2529.85 310.606 2519.39 294.683C2508.92 278.759 2513.54 257.245 2529.69 246.63C2545.85 236.014 2567.42 240.317 2577.89 256.241Z" fill="#48366F"/>
<path d="M2642.51 214.373C2657.68 237.45 2651.52 270.074 2627.75 285.694C2603.98 301.314 2571.6 294.015 2556.43 270.937C2541.27 247.86 2548.24 216.489 2572.01 200.869C2595.78 185.25 2627.35 191.295 2642.51 214.373Z" fill="#48366F"/>
<path d="M2640.85 171.788C2650.71 186.788 2646.17 207.185 2630.7 217.345C2615.24 227.506 2594.72 223.582 2584.86 208.582C2575 193.581 2579.55 173.185 2595.01 163.024C2610.47 152.864 2631 156.787 2640.85 171.788Z" fill="#48366F"/>
<path d="M2677.6 193.11C2687.46 208.111 2682.91 228.508 2667.45 238.668C2651.99 248.829 2631.46 244.905 2621.61 229.905C2611.75 214.904 2616.29 194.507 2631.76 184.347C2647.22 174.187 2667.74 178.11 2677.6 193.11Z" fill="#48366F"/>
<path d="M2586.93 189.874C2595.72 203.259 2589.76 222.715 2573.6 233.331C2557.45 243.946 2537.22 241.701 2528.43 228.316C2519.63 214.931 2525.6 195.475 2541.75 184.859C2557.9 174.244 2578.13 176.489 2586.93 189.874Z" fill="#48366F"/>
<path d="M2694.73 222.81C2695.3 241.856 2680.11 257.767 2660.79 258.349C2641.46 258.931 2625.34 243.964 2624.76 224.919C2624.19 205.874 2639.39 189.962 2658.71 189.38C2678.03 188.798 2694.16 203.765 2694.73 222.81Z" fill="#48366F"/>
<path d="M2720.33 209.033C2720.9 228.078 2705.7 243.99 2686.38 244.572C2667.06 245.154 2650.93 230.187 2650.36 211.142C2649.78 192.096 2664.98 176.185 2684.3 175.603C2703.62 175.021 2719.75 189.988 2720.33 209.033Z" fill="#48366F"/>
<path d="M2721.35 243.018C2721.92 262.063 2706.73 277.974 2687.41 278.556C2668.08 279.139 2651.96 264.171 2651.38 245.126C2650.81 226.081 2666.01 210.17 2685.33 209.588C2704.65 209.006 2720.78 223.973 2721.35 243.018Z" fill="#48366F"/>
<path d="M2798.33 241.199C2799.16 268.8 2776.84 293.37 2748.41 294.226C2719.98 295.083 2696.21 271.902 2695.38 244.301C2694.55 216.699 2716.92 193.629 2745.35 192.772C2773.78 191.916 2797.5 213.597 2798.33 241.199Z" fill="#48366F"/>
<path d="M2819.22 204.053C2819.76 221.994 2805.21 236.99 2786.72 237.547C2768.22 238.104 2752.79 224.012 2752.25 206.07C2751.71 188.129 2766.26 173.133 2784.76 172.576C2803.25 172.019 2818.68 186.111 2819.22 204.053Z" fill="#48366F"/>
<path d="M2839.36 241.463C2839.9 259.404 2825.34 274.4 2806.85 274.957C2788.36 275.514 2772.93 261.422 2772.39 243.481C2771.85 225.54 2786.4 210.544 2804.89 209.987C2823.39 209.43 2838.82 223.522 2839.36 241.463Z" fill="#48366F"/>
<path d="M2763.81 191.216C2764.29 207.225 2749.02 220.674 2729.7 221.257C2710.38 221.839 2694.32 209.333 2693.84 193.324C2693.36 177.315 2708.63 163.865 2727.95 163.283C2747.27 162.701 2763.33 175.207 2763.81 191.216Z" fill="#48366F"/>
<path d="M2797.73 220.81C2798.3 239.856 2783.11 255.767 2763.79 256.349C2744.46 256.931 2728.34 241.964 2727.76 222.919C2727.19 203.874 2742.39 187.962 2761.71 187.38C2781.03 186.798 2797.16 201.765 2797.73 220.81Z" fill="#48366F"/>
<path d="M2823.33 207.033C2823.9 226.078 2808.7 241.99 2789.38 242.572C2770.06 243.154 2753.93 228.187 2753.36 209.142C2752.78 190.096 2767.98 174.185 2787.3 173.603C2806.62 173.021 2822.75 187.988 2823.33 207.033Z" fill="#48366F"/>
<path d="M2824.35 241.018C2824.92 260.063 2809.73 275.974 2790.41 276.556C2771.08 277.139 2754.96 262.171 2754.38 243.126C2753.81 224.081 2769.01 208.17 2788.33 207.588C2807.65 207.006 2823.78 221.973 2824.35 241.018Z" fill="#48366F"/>
<path d="M2901.33 239.199C2902.16 266.8 2879.84 291.37 2851.41 292.226C2822.98 293.083 2799.21 269.902 2798.38 242.301C2797.55 214.699 2819.92 191.629 2848.35 190.772C2876.78 189.916 2900.5 211.597 2901.33 239.199Z" fill="#48366F"/>
<path d="M2922.22 202.053C2922.76 219.994 2908.21 234.99 2889.72 235.547C2871.22 236.104 2855.79 222.012 2855.25 204.07C2854.71 186.129 2869.26 171.133 2887.76 170.576C2906.25 170.019 2921.68 184.111 2922.22 202.053Z" fill="#48366F"/>
<path d="M2942.36 239.463C2942.9 257.404 2928.34 272.4 2909.85 272.957C2891.36 273.514 2875.93 259.422 2875.39 241.481C2874.85 223.54 2889.4 208.544 2907.89 207.987C2926.39 207.43 2941.82 221.522 2942.36 239.463Z" fill="#48366F"/>
<path d="M2866.81 189.216C2867.29 205.225 2852.02 218.674 2832.7 219.257C2813.38 219.839 2797.32 207.333 2796.84 191.324C2796.36 175.315 2811.63 161.865 2830.95 161.283C2850.27 160.701 2866.33 173.207 2866.81 189.216Z" fill="#48366F"/>
<path d="M72 222L98.8468 320.25H45.1532L72 222Z" fill="#013F07"/>
<path d="M115 222L141.847 320.25H88.1532L115 222Z" fill="#013F07"/>
<path d="M72 222L98.8468 320.25H45.1532L72 222Z" fill="#013F07"/>
<path d="M196 226L222.847 325H169.153L196 226Z" fill="#013F07"/>
<path d="M153 226L179.847 325H126.153L153 226Z" fill="#013F07"/>
<path d="M277 217L303.847 316H250.153L277 217Z" fill="#013F07"/>
<path d="M231 217L257.847 316H204.153L231 217Z" fill="#013F07"/>
<path d="M355 222L381.847 320.25H328.153L355 222Z" fill="#013F07"/>
<path d="M369 212L395.847 310.25H342.153L369 212Z" fill="#013F07"/>
<path d="M323 222L349.847 320.25H296.153L323 222Z" fill="#013F07"/>
<path d="M443 212L469.847 310.25H416.153L443 212Z" fill="#013F07"/>
<path d="M405.5 226L432.78 325H378.22L405.5 226Z" fill="#013F07"/>
<path d="M525 217L551.847 316H498.153L525 217Z" fill="#013F07"/>
<path d="M482 217L508.847 316H455.153L482 217Z" fill="#013F07"/>
<path d="M115 222L141.847 320.25H88.1532L115 222Z" fill="#013F07"/>
<path d="M196 226L222.847 325H169.153L196 226Z" fill="#013F07"/>
<path d="M323 222L349.847 320.25H296.153L323 222Z" fill="#013F07"/>
<path d="M525 217L551.847 316H498.153L525 217Z" fill="#013F07"/>
<path d="M482 217L508.847 316H455.153L482 217Z" fill="#013F07"/>
<path d="M56 279L82.8468 378H29.1532L56 279Z" fill="#003405"/>
<path d="M98 242L124.847 341H71.1532L98 242Z" fill="#003405"/>
<path d="M56 279L82.8468 378H29.1532L56 279Z" fill="#003405"/>
<path d="M179 247L205.847 345.25H152.153L179 247Z" fill="#003405"/>
<path d="M137 247L163.847 345.25H110.153L137 247Z" fill="#003405"/>
<path d="M257 237L283.847 335.25H230.153L257 237Z" fill="#003405"/>
<path d="M214 237L240.847 335.25H187.153L214 237Z" fill="#003405"/>
<path d="M338 242L364.847 341H311.153L338 242Z" fill="#003405"/>
<path d="M296 242L322.847 341H269.153L296 242Z" fill="#003405"/>
<path d="M267 237L293.847 335.25H240.153L267 237Z" fill="#003405"/>
<path d="M225 237L251.847 335.25H198.153L225 237Z" fill="#003405"/>
<path d="M306 242L332.847 341H279.153L306 242Z" fill="#003405"/>
<path d="M426 233L452.847 331.25H399.153L426 233Z" fill="#003405"/>
<path d="M384 233L410.847 331.25H357.153L384 233Z" fill="#003405"/>
<path d="M508 237L534.847 335.25H481.153L508 237Z" fill="#003405"/>
<path d="M465 237L491.847 335.25H438.153L465 237Z" fill="#003405"/>
<path d="M98 242L124.847 341H71.1532L98 242Z" fill="#003405"/>
<path d="M179 247L205.847 345.25H152.153L179 247Z" fill="#003405"/>
<path d="M225 237L251.847 335.25H198.153L225 237Z" fill="#003405"/>
<path d="M303.5 248L330.78 347H276.22L303.5 248Z" fill="#003405"/>
<path d="M508 237L534.847 335.25H481.153L508 237Z" fill="#003405"/>
<path d="M465 237L491.847 335.25H438.153L465 237Z" fill="#003405"/>
<path d="M77 266L103.847 364.25H50.1532L77 266Z" fill="#002904"/>
<path d="M120 266L146.847 364.25H93.1532L120 266Z" fill="#002904"/>
<path d="M77 266L103.847 364.25H50.1532L77 266Z" fill="#002904"/>
<path d="M201 271L227.847 369.25H174.153L201 271Z" fill="#002904"/>
<path d="M159 271L185.847 369.25H132.153L159 271Z" fill="#002904"/>
<path d="M279 261L305.847 360H252.153L279 261Z" fill="#002904"/>
<path d="M223 258L249.847 356.25H196.153L223 258Z" fill="#002904"/>
<path d="M360 266L386.847 364.25H333.153L360 266Z" fill="#002904"/>
<path d="M139 261L165.847 360H112.153L139 261Z" fill="#002904"/>
<path d="M247 271L273.847 369.25H220.153L247 271Z" fill="#002904"/>
<path d="M371 266L397.847 364.25H344.153L371 266Z" fill="#002904"/>
<path d="M328 266L354.847 364.25H301.153L328 266Z" fill="#002904"/>
<path d="M443 262L469.847 360.25H416.153L443 262Z" fill="#002904"/>
<path d="M456 266L482.847 364.25H429.153L456 266Z" fill="#002904"/>
<path d="M510 262L536.847 360.25H483.153L510 262Z" fill="#002904"/>
<path d="M405.5 262L437.976 370H373.024L405.5 262Z" fill="#002904"/>
<path d="M530 261L556.847 360H503.153L530 261Z" fill="#002904"/>
<path d="M487 261L513.847 360H460.153L487 261Z" fill="#002904"/>
<path d="M116 261L142.847 359.25H89.1532L116 261Z" fill="#002904"/>
<path d="M197 273L223.847 371.25H170.153L197 273Z" fill="#002904"/>
<path d="M321.5 266L348.78 364.25H294.22L321.5 266Z" fill="#002904"/>
<path d="M530 261L556.847 360H503.153L530 261Z" fill="#002904"/>
<path d="M487 261L513.847 360H460.153L487 261Z" fill="#002904"/>
<path d="M555 219L581.847 317.25H528.153L555 219Z" fill="#013F07"/>
<path d="M598 219L624.847 317.25H571.153L598 219Z" fill="#013F07"/>
<path d="M555 219L581.847 317.25H528.153L555 219Z" fill="#013F07"/>
<path d="M679 223L705.847 322H652.153L679 223Z" fill="#013F07"/>
<path d="M636 223L662.847 322H609.153L636 223Z" fill="#013F07"/>
<path d="M760 214L786.847 313H733.153L760 214Z" fill="#013F07"/>
<path d="M714 214L740.847 313H687.153L714 214Z" fill="#013F07"/>
<path d="M838 219L864.847 317.25H811.153L838 219Z" fill="#013F07"/>
<path d="M852 209L878.847 307.25H825.153L852 209Z" fill="#013F07"/>
<path d="M806 219L832.847 317.25H779.153L806 219Z" fill="#013F07"/>
<path d="M926 209L952.847 307.25H899.153L926 209Z" fill="#013F07"/>
<path d="M888.5 223L915.78 322H861.22L888.5 223Z" fill="#013F07"/>
<path d="M1008 214L1034.85 313H981.153L1008 214Z" fill="#013F07"/>
<path d="M965 214L991.847 313H938.153L965 214Z" fill="#013F07"/>
<path d="M598 219L624.847 317.25H571.153L598 219Z" fill="#013F07"/>
<path d="M679 223L705.847 322H652.153L679 223Z" fill="#013F07"/>
<path d="M806 219L832.847 317.25H779.153L806 219Z" fill="#013F07"/>
<path d="M1008 214L1034.85 313H981.153L1008 214Z" fill="#013F07"/>
<path d="M965 214L991.847 313H938.153L965 214Z" fill="#013F07"/>
<path d="M539 276L565.847 375H512.153L539 276Z" fill="#003405"/>
<path d="M581 239L607.847 338H554.153L581 239Z" fill="#003405"/>
<path d="M539 276L565.847 375H512.153L539 276Z" fill="#003405"/>
<path d="M662 244L688.847 342.25H635.153L662 244Z" fill="#003405"/>
<path d="M620 244L646.847 342.25H593.153L620 244Z" fill="#003405"/>
<path d="M740 234L766.847 332.25H713.153L740 234Z" fill="#003405"/>
<path d="M697 234L723.847 332.25H670.153L697 234Z" fill="#003405"/>
<path d="M821 239L847.847 338H794.153L821 239Z" fill="#003405"/>
<path d="M779 239L805.847 338H752.153L779 239Z" fill="#003405"/>
<path d="M750 234L776.847 332.25H723.153L750 234Z" fill="#003405"/>
<path d="M708 234L734.847 332.25H681.153L708 234Z" fill="#003405"/>
<path d="M789 239L815.847 338H762.153L789 239Z" fill="#003405"/>
<path d="M909 230L935.847 328.25H882.153L909 230Z" fill="#003405"/>
<path d="M867 230L893.847 328.25H840.153L867 230Z" fill="#003405"/>
<path d="M991 234L1017.85 332.25H964.153L991 234Z" fill="#003405"/>
<path d="M948 234L974.847 332.25H921.153L948 234Z" fill="#003405"/>
<path d="M581 239L607.847 338H554.153L581 239Z" fill="#003405"/>
<path d="M662 244L688.847 342.25H635.153L662 244Z" fill="#003405"/>
<path d="M708 234L734.847 332.25H681.153L708 234Z" fill="#003405"/>
<path d="M786.5 245L813.78 344H759.22L786.5 245Z" fill="#003405"/>
<path d="M991 234L1017.85 332.25H964.153L991 234Z" fill="#003405"/>
<path d="M948 234L974.847 332.25H921.153L948 234Z" fill="#003405"/>
<path d="M560 263L586.847 361.25H533.153L560 263Z" fill="#002904"/>
<path d="M603 263L629.847 361.25H576.153L603 263Z" fill="#002904"/>
<path d="M560 263L586.847 361.25H533.153L560 263Z" fill="#002904"/>
<path d="M587 272L613.847 370.25H560.153L587 272Z" fill="#002904"/>
<path d="M684 268L710.847 366.25H657.153L684 268Z" fill="#002904"/>
<path d="M642 268L668.847 366.25H615.153L642 268Z" fill="#002904"/>
<path d="M762 258L788.847 357H735.153L762 258Z" fill="#002904"/>
<path d="M706 255L732.847 353.25H679.153L706 255Z" fill="#002904"/>
<path d="M843 263L869.847 361.25H816.153L843 263Z" fill="#002904"/>
<path d="M622 258L648.847 357H595.153L622 258Z" fill="#002904"/>
<path d="M730 268L756.847 366.25H703.153L730 268Z" fill="#002904"/>
<path d="M854 263L880.847 361.25H827.153L854 263Z" fill="#002904"/>
<path d="M811 263L837.847 361.25H784.153L811 263Z" fill="#002904"/>
<path d="M926 259L952.847 357.25H899.153L926 259Z" fill="#002904"/>
<path d="M939 263L965.847 361.25H912.153L939 263Z" fill="#002904"/>
<path d="M993 259L1019.85 357.25H966.153L993 259Z" fill="#002904"/>
<path d="M897.5 250L929.976 358H865.024L897.5 250Z" fill="#002904"/>
<path d="M1013 258L1039.85 357H986.153L1013 258Z" fill="#002904"/>
<path d="M970 258L996.847 357H943.153L970 258Z" fill="#002904"/>
<path d="M599 258L625.847 356.25H572.153L599 258Z" fill="#002904"/>
<path d="M779 276L805.847 374.25H752.153L779 276Z" fill="#002904"/>
<path d="M804.5 263L831.78 361.25H777.22L804.5 263Z" fill="#002904"/>
<path d="M1013 258L1039.85 357H986.153L1013 258Z" fill="#002904"/>
<path d="M970 258L996.847 357H943.153L970 258Z" fill="#002904"/>
<path d="M1024 215L1050.85 313.25H997.153L1024 215Z" fill="#013F07"/>
<path d="M1067 215L1093.85 313.25H1040.15L1067 215Z" fill="#013F07"/>
<path d="M1024 215L1050.85 313.25H997.153L1024 215Z" fill="#013F07"/>
<path d="M1148 219L1174.85 318H1121.15L1148 219Z" fill="#013F07"/>
<path d="M1105 219L1131.85 318H1078.15L1105 219Z" fill="#013F07"/>
<path d="M1229 210L1255.85 309H1202.15L1229 210Z" fill="#013F07"/>
<path d="M1183 210L1209.85 309H1156.15L1183 210Z" fill="#013F07"/>
<path d="M1307 215L1333.85 313.25H1280.15L1307 215Z" fill="#013F07"/>
<path d="M1321 205L1347.85 303.25H1294.15L1321 205Z" fill="#013F07"/>
<path d="M1275 215L1301.85 313.25H1248.15L1275 215Z" fill="#013F07"/>
<path d="M1395 205L1421.85 303.25H1368.15L1395 205Z" fill="#013F07"/>
<path d="M1357.5 219L1384.78 318H1330.22L1357.5 219Z" fill="#013F07"/>
<path d="M1477 210L1503.85 309H1450.15L1477 210Z" fill="#013F07"/>
<path d="M1434 210L1460.85 309H1407.15L1434 210Z" fill="#013F07"/>
<path d="M1067 215L1093.85 313.25H1040.15L1067 215Z" fill="#013F07"/>
<path d="M1148 219L1174.85 318H1121.15L1148 219Z" fill="#013F07"/>
<path d="M1275 215L1301.85 313.25H1248.15L1275 215Z" fill="#013F07"/>
<path d="M1477 210L1503.85 309H1450.15L1477 210Z" fill="#013F07"/>
<path d="M1434 210L1460.85 309H1407.15L1434 210Z" fill="#013F07"/>
<path d="M1008 272L1034.85 371H981.153L1008 272Z" fill="#003405"/>
<path d="M1050 235L1076.85 334H1023.15L1050 235Z" fill="#003405"/>
<path d="M1008 272L1034.85 371H981.153L1008 272Z" fill="#003405"/>
<path d="M1131 240L1157.85 338.25H1104.15L1131 240Z" fill="#003405"/>
<path d="M1089 240L1115.85 338.25H1062.15L1089 240Z" fill="#003405"/>
<path d="M1209 230L1235.85 328.25H1182.15L1209 230Z" fill="#003405"/>
<path d="M1166 230L1192.85 328.25H1139.15L1166 230Z" fill="#003405"/>
<path d="M1290 235L1316.85 334H1263.15L1290 235Z" fill="#003405"/>
<path d="M1248 235L1274.85 334H1221.15L1248 235Z" fill="#003405"/>
<path d="M1219 230L1245.85 328.25H1192.15L1219 230Z" fill="#003405"/>
<path d="M1177 230L1203.85 328.25H1150.15L1177 230Z" fill="#003405"/>
<path d="M1258 235L1284.85 334H1231.15L1258 235Z" fill="#003405"/>
<path d="M1378 226L1404.85 324.25H1351.15L1378 226Z" fill="#003405"/>
<path d="M1336 226L1362.85 324.25H1309.15L1336 226Z" fill="#003405"/>
<path d="M1460 230L1486.85 328.25H1433.15L1460 230Z" fill="#003405"/>
<path d="M1417 230L1443.85 328.25H1390.15L1417 230Z" fill="#003405"/>
<path d="M1050 235L1076.85 334H1023.15L1050 235Z" fill="#003405"/>
<path d="M1131 240L1157.85 338.25H1104.15L1131 240Z" fill="#003405"/>
<path d="M1177 230L1203.85 328.25H1150.15L1177 230Z" fill="#003405"/>
<path d="M1255.5 241L1282.78 340H1228.22L1255.5 241Z" fill="#003405"/>
<path d="M1460 230L1486.85 328.25H1433.15L1460 230Z" fill="#003405"/>
<path d="M1417 230L1443.85 328.25H1390.15L1417 230Z" fill="#003405"/>
<path d="M1029 259L1055.85 357.25H1002.15L1029 259Z" fill="#002904"/>
<path d="M1072 259L1098.85 357.25H1045.15L1072 259Z" fill="#002904"/>
<path d="M1029 259L1055.85 357.25H1002.15L1029 259Z" fill="#002904"/>
<path d="M1153 264L1179.85 362.25H1126.15L1153 264Z" fill="#002904"/>
<path d="M1111 264L1137.85 362.25H1084.15L1111 264Z" fill="#002904"/>
<path d="M1231 254L1257.85 353H1204.15L1231 254Z" fill="#002904"/>
<path d="M1175 251L1201.85 349.25H1148.15L1175 251Z" fill="#002904"/>
<path d="M1312 259L1338.85 357.25H1285.15L1312 259Z" fill="#002904"/>
<path d="M1091 254L1117.85 353H1064.15L1091 254Z" fill="#002904"/>
<path d="M1199 264L1225.85 362.25H1172.15L1199 264Z" fill="#002904"/>
<path d="M1323 259L1349.85 357.25H1296.15L1323 259Z" fill="#002904"/>
<path d="M1280 259L1306.85 357.25H1253.15L1280 259Z" fill="#002904"/>
<path d="M1395 255L1421.85 353.25H1368.15L1395 255Z" fill="#002904"/>
<path d="M1408 259L1434.85 357.25H1381.15L1408 259Z" fill="#002904"/>
<path d="M1462 255L1488.85 353.25H1435.15L1462 255Z" fill="#002904"/>
<path d="M1357.5 255L1389.98 363H1325.02L1357.5 255Z" fill="#002904"/>
<path d="M1482 254L1508.85 353H1455.15L1482 254Z" fill="#002904"/>
<path d="M1439 254L1465.85 353H1412.15L1439 254Z" fill="#002904"/>
<path d="M1050 266L1076.85 364.25H1023.15L1050 266Z" fill="#002904"/>
<path d="M1149 266L1175.85 364.25H1122.15L1149 266Z" fill="#002904"/>
<path d="M1273.5 259L1300.78 357.25H1246.22L1273.5 259Z" fill="#002904"/>
<path d="M1482 254L1508.85 353H1455.15L1482 254Z" fill="#002904"/>
<path d="M1439 254L1465.85 353H1412.15L1439 254Z" fill="#002904"/>
<path d="M1493 222L1519.85 320.25H1466.15L1493 222Z" fill="#013F07"/>
<path d="M1536 222L1562.85 320.25H1509.15L1536 222Z" fill="#013F07"/>
<path d="M1493 222L1519.85 320.25H1466.15L1493 222Z" fill="#013F07"/>
<path d="M1617 226L1643.85 325H1590.15L1617 226Z" fill="#013F07"/>
<path d="M1574 226L1600.85 325H1547.15L1574 226Z" fill="#013F07"/>
<path d="M1698 217L1724.85 316H1671.15L1698 217Z" fill="#013F07"/>
<path d="M1652 217L1678.85 316H1625.15L1652 217Z" fill="#013F07"/>
<path d="M1776 222L1802.85 320.25H1749.15L1776 222Z" fill="#013F07"/>
<path d="M1790 212L1816.85 310.25H1763.15L1790 212Z" fill="#013F07"/>
<path d="M1744 222L1770.85 320.25H1717.15L1744 222Z" fill="#013F07"/>
<path d="M1864 212L1890.85 310.25H1837.15L1864 212Z" fill="#013F07"/>
<path d="M1826.5 226L1853.78 325H1799.22L1826.5 226Z" fill="#013F07"/>
<path d="M1946 217L1972.85 316H1919.15L1946 217Z" fill="#013F07"/>
<path d="M1903 217L1929.85 316H1876.15L1903 217Z" fill="#013F07"/>
<path d="M1536 222L1562.85 320.25H1509.15L1536 222Z" fill="#013F07"/>
<path d="M1617 226L1643.85 325H1590.15L1617 226Z" fill="#013F07"/>
<path d="M1744 222L1770.85 320.25H1717.15L1744 222Z" fill="#013F07"/>
<path d="M1946 217L1972.85 316H1919.15L1946 217Z" fill="#013F07"/>
<path d="M1903 217L1929.85 316H1876.15L1903 217Z" fill="#013F07"/>
<path d="M1486 269L1512.85 368H1459.15L1486 269Z" fill="#003405"/>
<path d="M1519 242L1545.85 341H1492.15L1519 242Z" fill="#003405"/>
<path d="M1448 269L1474.85 368H1421.15L1448 269Z" fill="#003405"/>
<path d="M1600 247L1626.85 345.25H1573.15L1600 247Z" fill="#003405"/>
<path d="M1558 247L1584.85 345.25H1531.15L1558 247Z" fill="#003405"/>
<path d="M1678 237L1704.85 335.25H1651.15L1678 237Z" fill="#003405"/>
<path d="M1635 237L1661.85 335.25H1608.15L1635 237Z" fill="#003405"/>
<path d="M1759 242L1785.85 341H1732.15L1759 242Z" fill="#003405"/>
<path d="M1717 242L1743.85 341H1690.15L1717 242Z" fill="#003405"/>
<path d="M1688 237L1714.85 335.25H1661.15L1688 237Z" fill="#003405"/>
<path d="M1646 237L1672.85 335.25H1619.15L1646 237Z" fill="#003405"/>
<path d="M1727 242L1753.85 341H1700.15L1727 242Z" fill="#003405"/>
<path d="M1847 233L1873.85 331.25H1820.15L1847 233Z" fill="#003405"/>
<path d="M1805 233L1831.85 331.25H1778.15L1805 233Z" fill="#003405"/>
<path d="M1929 237L1955.85 335.25H1902.15L1929 237Z" fill="#003405"/>
<path d="M1886 237L1912.85 335.25H1859.15L1886 237Z" fill="#003405"/>
<path d="M1519 242L1545.85 341H1492.15L1519 242Z" fill="#003405"/>
<path d="M1600 247L1626.85 345.25H1573.15L1600 247Z" fill="#003405"/>
<path d="M1646 237L1672.85 335.25H1619.15L1646 237Z" fill="#003405"/>
<path d="M1724.5 248L1751.78 347H1697.22L1724.5 248Z" fill="#003405"/>
<path d="M1929 237L1955.85 335.25H1902.15L1929 237Z" fill="#003405"/>
<path d="M1886 237L1912.85 335.25H1859.15L1886 237Z" fill="#003405"/>
<path d="M1498 266L1524.85 364.25H1471.15L1498 266Z" fill="#002904"/>
<path d="M1541 266L1567.85 364.25H1514.15L1541 266Z" fill="#002904"/>
<path d="M1243 269L1269.85 367.25H1216.15L1243 269Z" fill="#002904"/>
<path d="M1622 271L1648.85 369.25H1595.15L1622 271Z" fill="#002904"/>
<path d="M1580 271L1606.85 369.25H1553.15L1580 271Z" fill="#002904"/>
<path d="M1700 261L1726.85 360H1673.15L1700 261Z" fill="#002904"/>
<path d="M1644 258L1670.85 356.25H1617.15L1644 258Z" fill="#002904"/>
<path d="M1781 266L1807.85 364.25H1754.15L1781 266Z" fill="#002904"/>
<path d="M1560 261L1586.85 360H1533.15L1560 261Z" fill="#002904"/>
<path d="M1668 271L1694.85 369.25H1641.15L1668 271Z" fill="#002904"/>
<path d="M1792 266L1818.85 364.25H1765.15L1792 266Z" fill="#002904"/>
<path d="M1749 266L1775.85 364.25H1722.15L1749 266Z" fill="#002904"/>
<path d="M1864 262L1890.85 360.25H1837.15L1864 262Z" fill="#002904"/>
<path d="M1877 266L1903.85 364.25H1850.15L1877 266Z" fill="#002904"/>
<path d="M1931 262L1957.85 360.25H1904.15L1931 262Z" fill="#002904"/>
<path d="M1826.5 262L1858.98 370H1794.02L1826.5 262Z" fill="#002904"/>
<path d="M1951 261L1977.85 360H1924.15L1951 261Z" fill="#002904"/>
<path d="M1908 261L1934.85 360H1881.15L1908 261Z" fill="#002904"/>
<path d="M1537 261L1563.85 359.25H1510.15L1537 261Z" fill="#002904"/>
<path d="M1618 273L1644.85 371.25H1591.15L1618 273Z" fill="#002904"/>
<path d="M1742.5 266L1769.78 364.25H1715.22L1742.5 266Z" fill="#002904"/>
<path d="M1951 261L1977.85 360H1924.15L1951 261Z" fill="#002904"/>
<path d="M1908 261L1934.85 360H1881.15L1908 261Z" fill="#002904"/>
<path d="M1976 219L2002.85 317.25H1949.15L1976 219Z" fill="#013F07"/>
<path d="M2019 219L2045.85 317.25H1992.15L2019 219Z" fill="#013F07"/>
<path d="M1976 219L2002.85 317.25H1949.15L1976 219Z" fill="#013F07"/>
<path d="M2100 223L2126.85 322H2073.15L2100 223Z" fill="#013F07"/>
<path d="M2057 223L2083.85 322H2030.15L2057 223Z" fill="#013F07"/>
<path d="M2181 214L2207.85 313H2154.15L2181 214Z" fill="#013F07"/>
<path d="M2135 214L2161.85 313H2108.15L2135 214Z" fill="#013F07"/>
<path d="M2259 219L2285.85 317.25H2232.15L2259 219Z" fill="#013F07"/>
<path d="M2273 209L2299.85 307.25H2246.15L2273 209Z" fill="#013F07"/>
<path d="M2227 219L2253.85 317.25H2200.15L2227 219Z" fill="#013F07"/>
<path d="M2347 209L2373.85 307.25H2320.15L2347 209Z" fill="#013F07"/>
<path d="M2309.5 223L2336.78 322H2282.22L2309.5 223Z" fill="#013F07"/>
<path d="M2429 214L2455.85 313H2402.15L2429 214Z" fill="#013F07"/>
<path d="M2386 214L2412.85 313H2359.15L2386 214Z" fill="#013F07"/>
<path d="M2019 219L2045.85 317.25H1992.15L2019 219Z" fill="#013F07"/>
<path d="M2100 223L2126.85 322H2073.15L2100 223Z" fill="#013F07"/>
<path d="M2227 219L2253.85 317.25H2200.15L2227 219Z" fill="#013F07"/>
<path d="M2429 214L2455.85 313H2402.15L2429 214Z" fill="#013F07"/>
<path d="M2386 214L2412.85 313H2359.15L2386 214Z" fill="#013F07"/>
<path d="M1960 276L1986.85 375H1933.15L1960 276Z" fill="#003405"/>
<path d="M2002 239L2028.85 338H1975.15L2002 239Z" fill="#003405"/>
<path d="M1920 270L1946.85 369H1893.15L1920 270Z" fill="#003405"/>
<path d="M2083 244L2109.85 342.25H2056.15L2083 244Z" fill="#003405"/>
<path d="M2041 244L2067.85 342.25H2014.15L2041 244Z" fill="#003405"/>
<path d="M2161 234L2187.85 332.25H2134.15L2161 234Z" fill="#003405"/>
<path d="M2118 234L2144.85 332.25H2091.15L2118 234Z" fill="#003405"/>
<path d="M2242 239L2268.85 338H2215.15L2242 239Z" fill="#003405"/>
<path d="M2200 239L2226.85 338H2173.15L2200 239Z" fill="#003405"/>
<path d="M2171 234L2197.85 332.25H2144.15L2171 234Z" fill="#003405"/>
<path d="M2129 234L2155.85 332.25H2102.15L2129 234Z" fill="#003405"/>
<path d="M2210 239L2236.85 338H2183.15L2210 239Z" fill="#003405"/>
<path d="M2330 230L2356.85 328.25H2303.15L2330 230Z" fill="#003405"/>
<path d="M2288 230L2314.85 328.25H2261.15L2288 230Z" fill="#003405"/>
<path d="M2412 234L2438.85 332.25H2385.15L2412 234Z" fill="#003405"/>
<path d="M2369 234L2395.85 332.25H2342.15L2369 234Z" fill="#003405"/>
<path d="M2002 239L2028.85 338H1975.15L2002 239Z" fill="#003405"/>
<path d="M2083 244L2109.85 342.25H2056.15L2083 244Z" fill="#003405"/>
<path d="M2129 234L2155.85 332.25H2102.15L2129 234Z" fill="#003405"/>
<path d="M2207.5 245L2234.78 344H2180.22L2207.5 245Z" fill="#003405"/>
<path d="M2412 234L2438.85 332.25H2385.15L2412 234Z" fill="#003405"/>
<path d="M2369 234L2395.85 332.25H2342.15L2369 234Z" fill="#003405"/>
<path d="M1981 263L2007.85 361.25H1954.15L1981 263Z" fill="#002904"/>
<path d="M2024 263L2050.85 361.25H1997.15L2024 263Z" fill="#002904"/>
<path d="M1981 263L2007.85 361.25H1954.15L1981 263Z" fill="#002904"/>
<path d="M2105 268L2131.85 366.25H2078.15L2105 268Z" fill="#002904"/>
<path d="M2063 268L2089.85 366.25H2036.15L2063 268Z" fill="#002904"/>
<path d="M2183 258L2209.85 357H2156.15L2183 258Z" fill="#002904"/>
<path d="M2127 255L2153.85 353.25H2100.15L2127 255Z" fill="#002904"/>
<path d="M2264 263L2290.85 361.25H2237.15L2264 263Z" fill="#002904"/>
<path d="M2043 258L2069.85 357H2016.15L2043 258Z" fill="#002904"/>
<path d="M2151 268L2177.85 366.25H2124.15L2151 268Z" fill="#002904"/>
<path d="M2275 263L2301.85 361.25H2248.15L2275 263Z" fill="#002904"/>
<path d="M2232 263L2258.85 361.25H2205.15L2232 263Z" fill="#002904"/>
<path d="M2347 259L2373.85 357.25H2320.15L2347 259Z" fill="#002904"/>
<path d="M2360 263L2386.85 361.25H2333.15L2360 263Z" fill="#002904"/>
<path d="M2414 259L2440.85 357.25H2387.15L2414 259Z" fill="#002904"/>
<path d="M2309.5 259L2341.98 367H2277.02L2309.5 259Z" fill="#002904"/>
<path d="M2434 258L2460.85 357H2407.15L2434 258Z" fill="#002904"/>
<path d="M2391 258L2417.85 357H2364.15L2391 258Z" fill="#002904"/>
<path d="M2020 258L2046.85 356.25H1993.15L2020 258Z" fill="#002904"/>
<path d="M2101 270L2127.85 368.25H2074.15L2101 270Z" fill="#002904"/>
<path d="M2225.5 263L2252.78 361.25H2198.22L2225.5 263Z" fill="#002904"/>
<path d="M2434 258L2460.85 357H2407.15L2434 258Z" fill="#002904"/>
<path d="M2391 258L2417.85 357H2364.15L2391 258Z" fill="#002904"/>
<path d="M2445 215L2471.85 313.25H2418.15L2445 215Z" fill="#013F07"/>
<path d="M2488 215L2514.85 313.25H2461.15L2488 215Z" fill="#013F07"/>
<path d="M2445 215L2471.85 313.25H2418.15L2445 215Z" fill="#013F07"/>
<path d="M2569 219L2595.85 318H2542.15L2569 219Z" fill="#013F07"/>
<path d="M2526 219L2552.85 318H2499.15L2526 219Z" fill="#013F07"/>
<path d="M2650 210L2676.85 309H2623.15L2650 210Z" fill="#013F07"/>
<path d="M2604 210L2630.85 309H2577.15L2604 210Z" fill="#013F07"/>
<path d="M2728 215L2754.85 313.25H2701.15L2728 215Z" fill="#013F07"/>
<path d="M2742 205L2768.85 303.25H2715.15L2742 205Z" fill="#013F07"/>
<path d="M2696 215L2722.85 313.25H2669.15L2696 215Z" fill="#013F07"/>
<path d="M2816 205L2842.85 303.25H2789.15L2816 205Z" fill="#013F07"/>
<path d="M2778.5 219L2805.78 318H2751.22L2778.5 219Z" fill="#013F07"/>
<path d="M2898 210L2924.85 309H2871.15L2898 210Z" fill="#013F07"/>
<path d="M2855 210L2881.85 309H2828.15L2855 210Z" fill="#013F07"/>
<path d="M2488 215L2514.85 313.25H2461.15L2488 215Z" fill="#013F07"/>
<path d="M2569 219L2595.85 318H2542.15L2569 219Z" fill="#013F07"/>
<path d="M2696 215L2722.85 313.25H2669.15L2696 215Z" fill="#013F07"/>
<path d="M2898 210L2924.85 309H2871.15L2898 210Z" fill="#013F07"/>
<path d="M2855 210L2881.85 309H2828.15L2855 210Z" fill="#013F07"/>
<path d="M2429 272L2455.85 371H2402.15L2429 272Z" fill="#003405"/>
<path d="M2471 235L2497.85 334H2444.15L2471 235Z" fill="#003405"/>
<path d="M2429 272L2455.85 371H2402.15L2429 272Z" fill="#003405"/>
<path d="M2552 240L2578.85 338.25H2525.15L2552 240Z" fill="#003405"/>
<path d="M2510 240L2536.85 338.25H2483.15L2510 240Z" fill="#003405"/>
<path d="M2630 230L2656.85 328.25H2603.15L2630 230Z" fill="#003405"/>
<path d="M2587 230L2613.85 328.25H2560.15L2587 230Z" fill="#003405"/>
<path d="M2711 235L2737.85 334H2684.15L2711 235Z" fill="#003405"/>
<path d="M2669 235L2695.85 334H2642.15L2669 235Z" fill="#003405"/>
<path d="M2640 230L2666.85 328.25H2613.15L2640 230Z" fill="#003405"/>
<path d="M2598 230L2624.85 328.25H2571.15L2598 230Z" fill="#003405"/>
<path d="M2679 235L2705.85 334H2652.15L2679 235Z" fill="#003405"/>
<path d="M2799 226L2825.85 324.25H2772.15L2799 226Z" fill="#003405"/>
<path d="M2757 226L2783.85 324.25H2730.15L2757 226Z" fill="#003405"/>
<path d="M2881 230L2907.85 328.25H2854.15L2881 230Z" fill="#003405"/>
<path d="M2838 230L2864.85 328.25H2811.15L2838 230Z" fill="#003405"/>
<path d="M2471 235L2497.85 334H2444.15L2471 235Z" fill="#003405"/>
<path d="M2552 240L2578.85 338.25H2525.15L2552 240Z" fill="#003405"/>
<path d="M2598 230L2624.85 328.25H2571.15L2598 230Z" fill="#003405"/>
<path d="M2676.5 241L2703.78 340H2649.22L2676.5 241Z" fill="#003405"/>
<path d="M2881 230L2907.85 328.25H2854.15L2881 230Z" fill="#003405"/>
<path d="M2838 230L2864.85 328.25H2811.15L2838 230Z" fill="#003405"/>
<path d="M2450 259L2476.85 357.25H2423.15L2450 259Z" fill="#002904"/>
<path d="M2493 259L2519.85 357.25H2466.15L2493 259Z" fill="#002904"/>
<path d="M2414 271L2440.85 369.25H2387.15L2414 271Z" fill="#002904"/>
<path d="M2574 264L2600.85 362.25H2547.15L2574 264Z" fill="#002904"/>
<path d="M2532 264L2558.85 362.25H2505.15L2532 264Z" fill="#002904"/>
<path d="M2652 254L2678.85 353H2625.15L2652 254Z" fill="#002904"/>
<path d="M2596 251L2622.85 349.25H2569.15L2596 251Z" fill="#002904"/>
<path d="M2733 259L2759.85 357.25H2706.15L2733 259Z" fill="#002904"/>
<path d="M2512 254L2538.85 353H2485.15L2512 254Z" fill="#002904"/>
<path d="M2620 264L2646.85 362.25H2593.15L2620 264Z" fill="#002904"/>
<path d="M2744 259L2770.85 357.25H2717.15L2744 259Z" fill="#002904"/>
<path d="M2701 259L2727.85 357.25H2674.15L2701 259Z" fill="#002904"/>
<path d="M2816 255L2842.85 353.25H2789.15L2816 255Z" fill="#002904"/>
<path d="M2829 259L2855.85 357.25H2802.15L2829 259Z" fill="#002904"/>
<path d="M2883 255L2909.85 353.25H2856.15L2883 255Z" fill="#002904"/>
<path d="M2778.5 255L2810.98 363H2746.02L2778.5 255Z" fill="#002904"/>
<path d="M2903 254L2929.85 353H2876.15L2903 254Z" fill="#002904"/>
<path d="M2860 254L2886.85 353H2833.15L2860 254Z" fill="#002904"/>
<path d="M2489 254L2515.85 352.25H2462.15L2489 254Z" fill="#002904"/>
<path d="M2660 269L2686.85 367.25H2633.15L2660 269Z" fill="#002904"/>
<path d="M2694.5 259L2721.78 357.25H2667.22L2694.5 259Z" fill="#002904"/>
<path d="M2903 254L2929.85 353H2876.15L2903 254Z" fill="#002904"/>
<path d="M2860 254L2886.85 353H2833.15L2860 254Z" fill="#002904"/>
</svg>
