<svg width="37" height="37" viewBox="0 0 37 37" fill="none" xmlns="http://www.w3.org/2000/svg">
<path d="M16.3417 19.5946C16.1972 19.4513 16.0825 19.2808 16.0042 19.0929C15.9259 18.9051 15.8856 18.7036 15.8856 18.5C15.8856 18.2965 15.9259 18.095 16.0042 17.9072C16.0825 17.7193 16.1972 17.5488 16.3417 17.4055L23.4179 10.3446C23.5624 10.2013 23.6771 10.0308 23.7554 9.84293C23.8336 9.65506 23.8739 9.45356 23.8739 9.25004C23.8739 9.04652 23.8336 8.84502 23.7554 8.65715C23.6771 8.46929 23.5624 8.29878 23.4179 8.15546C23.1291 7.86832 22.7383 7.70715 22.331 7.70715C21.9237 7.70715 21.533 7.86832 21.2442 8.15546L14.1679 15.2317C13.3018 16.0989 12.8153 17.2744 12.8153 18.5C12.8153 19.7257 13.3018 20.9012 14.1679 21.7684L21.2442 28.8446C21.5313 29.1294 21.9189 29.29 22.3233 29.2917C22.5262 29.2929 22.7273 29.254 22.9152 29.1773C23.103 29.1006 23.2739 28.9875 23.4179 28.8446C23.5624 28.7013 23.6771 28.5308 23.7554 28.3429C23.8336 28.1551 23.8739 27.9536 23.8739 27.75C23.8739 27.5465 23.8336 27.345 23.7554 27.1572C23.6771 26.9693 23.5624 26.7988 23.4179 26.6555L16.3417 19.5946Z" fill="white"/>
</svg>
