<svg width="200" height="200" viewBox="0 0 200 200" fill="none" xmlns="http://www.w3.org/2000/svg">
<rect width="200" height="200" rx="100" fill="#DAC7F2" fill-opacity="0.25"/>
<g clip-path="url(#clip0_407_91)">
<path d="M104.605 19H102.77L97.252 8.375L97.2227 19H95.3965V4.78125H97.2324L102.75 15.3867L102.779 4.78125H104.605V19Z" fill="black"/>
</g>
<path d="M96.8594 182.594C96.8594 183.03 96.9603 183.398 97.1621 183.697C97.3574 183.997 97.6113 184.251 97.9238 184.459C98.2363 184.661 98.5814 184.83 98.959 184.967C99.3301 185.104 99.6882 185.227 100.033 185.338C100.535 185.501 101.046 185.696 101.566 185.924C102.081 186.158 102.549 186.438 102.973 186.764C103.402 187.096 103.754 187.486 104.027 187.936C104.294 188.391 104.428 188.925 104.428 189.537C104.428 190.149 104.294 190.696 104.027 191.178C103.754 191.66 103.399 192.066 102.963 192.398C102.527 192.73 102.032 192.981 101.479 193.15C100.925 193.326 100.368 193.414 99.8086 193.414C99.1901 193.414 98.5944 193.31 98.0215 193.102C97.4486 192.9 96.9408 192.613 96.498 192.242C96.0553 191.871 95.7005 191.422 95.4336 190.895C95.1667 190.367 95.0267 189.778 95.0137 189.127H96.8691C96.9212 189.537 97.0221 189.908 97.1719 190.24C97.3216 190.579 97.5202 190.868 97.7676 191.109C98.015 191.35 98.3112 191.536 98.6562 191.666C98.9948 191.803 99.3789 191.871 99.8086 191.871C100.154 191.871 100.492 191.822 100.824 191.725C101.15 191.627 101.439 191.48 101.693 191.285C101.954 191.09 102.162 190.849 102.318 190.562C102.468 190.276 102.543 189.944 102.543 189.566C102.536 189.156 102.432 188.808 102.23 188.521C102.029 188.242 101.771 188.004 101.459 187.809C101.153 187.613 100.821 187.451 100.463 187.32C100.098 187.19 99.7565 187.076 99.4375 186.979C98.9102 186.816 98.3828 186.617 97.8555 186.383C97.3281 186.155 96.8464 185.862 96.4102 185.504C95.9805 185.172 95.6354 184.765 95.375 184.283C95.1081 183.801 94.9746 183.245 94.9746 182.613C94.9746 181.975 95.1178 181.419 95.4043 180.943C95.6842 180.468 96.0488 180.074 96.498 179.762C96.9473 179.443 97.4551 179.202 98.0215 179.039C98.5879 178.883 99.1543 178.805 99.7207 178.805C100.398 178.805 101.065 178.919 101.723 179.146C102.374 179.374 102.94 179.703 103.422 180.133C103.852 180.504 104.193 180.937 104.447 181.432C104.695 181.933 104.828 182.49 104.848 183.102H103.002C102.943 182.659 102.823 182.265 102.641 181.92C102.458 181.581 102.224 181.295 101.938 181.061C101.651 180.82 101.322 180.637 100.951 180.514C100.574 180.396 100.163 180.338 99.7207 180.338C99.3691 180.338 99.0241 180.38 98.6855 180.465C98.3405 180.556 98.0345 180.696 97.7676 180.885C97.5007 181.067 97.2826 181.298 97.1133 181.578C96.944 181.865 96.8594 182.203 96.8594 182.594Z" fill="black"/>
<g clip-path="url(#clip1_407_91)">
<path d="M20.5 105.059L6.28125 106.787V105.068L16.0859 104.043L16.6523 103.984L16.0664 103.877L6.28125 102.158V100.586L16.0762 98.8574L16.6523 98.75L16.0664 98.6914L6.28125 97.666V95.957L20.5 97.6855V99.5312L10.3828 101.26L9.78711 101.357L10.3926 101.465L20.5 103.203V105.059Z" fill="black"/>
</g>
<path d="M187.428 103.521V97.584H192.467V104.508H194V95.7773H179.781V104.42H181.324V97.584H185.895V103.521H187.428Z" fill="black"/>
<defs>
<clipPath id="clip0_407_91">
<rect width="12" height="13" fill="white" transform="translate(94 6)"/>
</clipPath>
<clipPath id="clip1_407_91">
<rect width="12" height="13" fill="white" transform="matrix(0 -1 1 0 7.5 107.5)"/>
</clipPath>
</defs>
</svg>
