<svg width="2909" height="206" viewBox="0 0 2909 206" fill="none" xmlns="http://www.w3.org/2000/svg">
<path d="M47 17L73.8468 115.25H20.1532L47 17Z" fill="#013F07"/>
<path d="M90 17L116.847 115.25H63.1532L90 17Z" fill="#013F07"/>
<path d="M47 17L73.8468 115.25H20.1532L47 17Z" fill="#013F07"/>
<path d="M171 21L197.847 120H144.153L171 21Z" fill="#013F07"/>
<path d="M128 21L154.847 120H101.153L128 21Z" fill="#013F07"/>
<path d="M252 12L278.847 111H225.153L252 12Z" fill="#013F07"/>
<path d="M206 12L232.847 111H179.153L206 12Z" fill="#013F07"/>
<path d="M330 17L356.847 115.25H303.153L330 17Z" fill="#013F07"/>
<path d="M344 7L370.847 105.25H317.153L344 7Z" fill="#013F07"/>
<path d="M298 17L324.847 115.25H271.153L298 17Z" fill="#013F07"/>
<path d="M418 7L444.847 105.25H391.153L418 7Z" fill="#013F07"/>
<path d="M380.5 21L407.78 120H353.22L380.5 21Z" fill="#013F07"/>
<path d="M500 12L526.847 111H473.153L500 12Z" fill="#013F07"/>
<path d="M457 12L483.847 111H430.153L457 12Z" fill="#013F07"/>
<path d="M90 17L116.847 115.25H63.1532L90 17Z" fill="#013F07"/>
<path d="M171 21L197.847 120H144.153L171 21Z" fill="#013F07"/>
<path d="M298 17L324.847 115.25H271.153L298 17Z" fill="#013F07"/>
<path d="M500 12L526.847 111H473.153L500 12Z" fill="#013F07"/>
<path d="M457 12L483.847 111H430.153L457 12Z" fill="#013F07"/>
<path d="M31 74L57.8468 173H4.15321L31 74Z" fill="#003405"/>
<path d="M73 37L99.8468 136H46.1532L73 37Z" fill="#003405"/>
<path d="M31 74L57.8468 173H4.15321L31 74Z" fill="#003405"/>
<path d="M154 42L180.847 140.25H127.153L154 42Z" fill="#003405"/>
<path d="M112 42L138.847 140.25H85.1532L112 42Z" fill="#003405"/>
<path d="M232 32L258.847 130.25H205.153L232 32Z" fill="#003405"/>
<path d="M189 32L215.847 130.25H162.153L189 32Z" fill="#003405"/>
<path d="M313 37L339.847 136H286.153L313 37Z" fill="#003405"/>
<path d="M271 37L297.847 136H244.153L271 37Z" fill="#003405"/>
<path d="M242 32L268.847 130.25H215.153L242 32Z" fill="#003405"/>
<path d="M200 32L226.847 130.25H173.153L200 32Z" fill="#003405"/>
<path d="M281 37L307.847 136H254.153L281 37Z" fill="#003405"/>
<path d="M401 28L427.847 126.25H374.153L401 28Z" fill="#003405"/>
<path d="M359 28L385.847 126.25H332.153L359 28Z" fill="#003405"/>
<path d="M483 32L509.847 130.25H456.153L483 32Z" fill="#003405"/>
<path d="M440 32L466.847 130.25H413.153L440 32Z" fill="#003405"/>
<path d="M73 37L99.8468 136H46.1532L73 37Z" fill="#003405"/>
<path d="M154 42L180.847 140.25H127.153L154 42Z" fill="#003405"/>
<path d="M200 32L226.847 130.25H173.153L200 32Z" fill="#003405"/>
<path d="M278.5 43L305.78 142H251.22L278.5 43Z" fill="#003405"/>
<path d="M483 32L509.847 130.25H456.153L483 32Z" fill="#003405"/>
<path d="M440 32L466.847 130.25H413.153L440 32Z" fill="#003405"/>
<path d="M52 61L78.8468 159.25H25.1532L52 61Z" fill="#002904"/>
<path d="M95 61L121.847 159.25H68.1532L95 61Z" fill="#002904"/>
<path d="M52 61L78.8468 159.25H25.1532L52 61Z" fill="#002904"/>
<path d="M176 66L202.847 164.25H149.153L176 66Z" fill="#002904"/>
<path d="M134 66L160.847 164.25H107.153L134 66Z" fill="#002904"/>
<path d="M254 56L280.847 155H227.153L254 56Z" fill="#002904"/>
<path d="M198 53L224.847 151.25H171.153L198 53Z" fill="#002904"/>
<path d="M335 61L361.847 159.25H308.153L335 61Z" fill="#002904"/>
<path d="M114 56L140.847 155H87.1532L114 56Z" fill="#002904"/>
<path d="M222 66L248.847 164.25H195.153L222 66Z" fill="#002904"/>
<path d="M346 61L372.847 159.25H319.153L346 61Z" fill="#002904"/>
<path d="M303 61L329.847 159.25H276.153L303 61Z" fill="#002904"/>
<path d="M418 57L444.847 155.25H391.153L418 57Z" fill="#002904"/>
<path d="M431 61L457.847 159.25H404.153L431 61Z" fill="#002904"/>
<path d="M485 57L511.847 155.25H458.153L485 57Z" fill="#002904"/>
<path d="M380.5 57L412.976 165H348.024L380.5 57Z" fill="#002904"/>
<path d="M505 56L531.847 155H478.153L505 56Z" fill="#002904"/>
<path d="M462 56L488.847 155H435.153L462 56Z" fill="#002904"/>
<path d="M91 56L117.847 154.25H64.1532L91 56Z" fill="#002904"/>
<path d="M172 68L198.847 166.25H145.153L172 68Z" fill="#002904"/>
<path d="M296.5 61L323.78 159.25H269.22L296.5 61Z" fill="#002904"/>
<path d="M505 56L531.847 155H478.153L505 56Z" fill="#002904"/>
<path d="M462 56L488.847 155H435.153L462 56Z" fill="#002904"/>
<path d="M530 14L556.847 112.25H503.153L530 14Z" fill="#013F07"/>
<path d="M573 14L599.847 112.25H546.153L573 14Z" fill="#013F07"/>
<path d="M530 14L556.847 112.25H503.153L530 14Z" fill="#013F07"/>
<path d="M654 18L680.847 117H627.153L654 18Z" fill="#013F07"/>
<path d="M611 18L637.847 117H584.153L611 18Z" fill="#013F07"/>
<path d="M735 9L761.847 108H708.153L735 9Z" fill="#013F07"/>
<path d="M689 9L715.847 108H662.153L689 9Z" fill="#013F07"/>
<path d="M813 14L839.847 112.25H786.153L813 14Z" fill="#013F07"/>
<path d="M827 4L853.847 102.25H800.153L827 4Z" fill="#013F07"/>
<path d="M781 14L807.847 112.25H754.153L781 14Z" fill="#013F07"/>
<path d="M901 4L927.847 102.25H874.153L901 4Z" fill="#013F07"/>
<path d="M863.5 18L890.78 117H836.22L863.5 18Z" fill="#013F07"/>
<path d="M983 9L1009.85 108H956.153L983 9Z" fill="#013F07"/>
<path d="M940 9L966.847 108H913.153L940 9Z" fill="#013F07"/>
<path d="M573 14L599.847 112.25H546.153L573 14Z" fill="#013F07"/>
<path d="M654 18L680.847 117H627.153L654 18Z" fill="#013F07"/>
<path d="M781 14L807.847 112.25H754.153L781 14Z" fill="#013F07"/>
<path d="M983 9L1009.85 108H956.153L983 9Z" fill="#013F07"/>
<path d="M940 9L966.847 108H913.153L940 9Z" fill="#013F07"/>
<path d="M514 71L540.847 170H487.153L514 71Z" fill="#003405"/>
<path d="M556 34L582.847 133H529.153L556 34Z" fill="#003405"/>
<path d="M514 71L540.847 170H487.153L514 71Z" fill="#003405"/>
<path d="M637 39L663.847 137.25H610.153L637 39Z" fill="#003405"/>
<path d="M595 39L621.847 137.25H568.153L595 39Z" fill="#003405"/>
<path d="M715 29L741.847 127.25H688.153L715 29Z" fill="#003405"/>
<path d="M672 29L698.847 127.25H645.153L672 29Z" fill="#003405"/>
<path d="M796 34L822.847 133H769.153L796 34Z" fill="#003405"/>
<path d="M754 34L780.847 133H727.153L754 34Z" fill="#003405"/>
<path d="M725 29L751.847 127.25H698.153L725 29Z" fill="#003405"/>
<path d="M683 29L709.847 127.25H656.153L683 29Z" fill="#003405"/>
<path d="M764 34L790.847 133H737.153L764 34Z" fill="#003405"/>
<path d="M884 25L910.847 123.25H857.153L884 25Z" fill="#003405"/>
<path d="M842 25L868.847 123.25H815.153L842 25Z" fill="#003405"/>
<path d="M966 29L992.847 127.25H939.153L966 29Z" fill="#003405"/>
<path d="M923 29L949.847 127.25H896.153L923 29Z" fill="#003405"/>
<path d="M556 34L582.847 133H529.153L556 34Z" fill="#003405"/>
<path d="M637 39L663.847 137.25H610.153L637 39Z" fill="#003405"/>
<path d="M683 29L709.847 127.25H656.153L683 29Z" fill="#003405"/>
<path d="M761.5 40L788.78 139H734.22L761.5 40Z" fill="#003405"/>
<path d="M966 29L992.847 127.25H939.153L966 29Z" fill="#003405"/>
<path d="M923 29L949.847 127.25H896.153L923 29Z" fill="#003405"/>
<path d="M535 58L561.847 156.25H508.153L535 58Z" fill="#002904"/>
<path d="M578 58L604.847 156.25H551.153L578 58Z" fill="#002904"/>
<path d="M535 58L561.847 156.25H508.153L535 58Z" fill="#002904"/>
<path d="M562 67L588.847 165.25H535.153L562 67Z" fill="#002904"/>
<path d="M659 63L685.847 161.25H632.153L659 63Z" fill="#002904"/>
<path d="M617 63L643.847 161.25H590.153L617 63Z" fill="#002904"/>
<path d="M737 53L763.847 152H710.153L737 53Z" fill="#002904"/>
<path d="M681 50L707.847 148.25H654.153L681 50Z" fill="#002904"/>
<path d="M818 58L844.847 156.25H791.153L818 58Z" fill="#002904"/>
<path d="M597 53L623.847 152H570.153L597 53Z" fill="#002904"/>
<path d="M705 63L731.847 161.25H678.153L705 63Z" fill="#002904"/>
<path d="M829 58L855.847 156.25H802.153L829 58Z" fill="#002904"/>
<path d="M786 58L812.847 156.25H759.153L786 58Z" fill="#002904"/>
<path d="M901 54L927.847 152.25H874.153L901 54Z" fill="#002904"/>
<path d="M914 58L940.847 156.25H887.153L914 58Z" fill="#002904"/>
<path d="M968 54L994.847 152.25H941.153L968 54Z" fill="#002904"/>
<path d="M872.5 45L904.976 153H840.024L872.5 45Z" fill="#002904"/>
<path d="M988 53L1014.85 152H961.153L988 53Z" fill="#002904"/>
<path d="M945 53L971.847 152H918.153L945 53Z" fill="#002904"/>
<path d="M574 53L600.847 151.25H547.153L574 53Z" fill="#002904"/>
<path d="M754 71L780.847 169.25H727.153L754 71Z" fill="#002904"/>
<path d="M779.5 58L806.78 156.25H752.22L779.5 58Z" fill="#002904"/>
<path d="M988 53L1014.85 152H961.153L988 53Z" fill="#002904"/>
<path d="M945 53L971.847 152H918.153L945 53Z" fill="#002904"/>
<path d="M999 10L1025.85 108.25H972.153L999 10Z" fill="#013F07"/>
<path d="M1042 10L1068.85 108.25H1015.15L1042 10Z" fill="#013F07"/>
<path d="M999 10L1025.85 108.25H972.153L999 10Z" fill="#013F07"/>
<path d="M1123 14L1149.85 113H1096.15L1123 14Z" fill="#013F07"/>
<path d="M1080 14L1106.85 113H1053.15L1080 14Z" fill="#013F07"/>
<path d="M1204 5L1230.85 104H1177.15L1204 5Z" fill="#013F07"/>
<path d="M1158 5L1184.85 104H1131.15L1158 5Z" fill="#013F07"/>
<path d="M1282 10L1308.85 108.25H1255.15L1282 10Z" fill="#013F07"/>
<path d="M1296 0L1322.85 98.25H1269.15L1296 0Z" fill="#013F07"/>
<path d="M1250 10L1276.85 108.25H1223.15L1250 10Z" fill="#013F07"/>
<path d="M1370 0L1396.85 98.25H1343.15L1370 0Z" fill="#013F07"/>
<path d="M1332.5 14L1359.78 113H1305.22L1332.5 14Z" fill="#013F07"/>
<path d="M1452 5L1478.85 104H1425.15L1452 5Z" fill="#013F07"/>
<path d="M1409 5L1435.85 104H1382.15L1409 5Z" fill="#013F07"/>
<path d="M1042 10L1068.85 108.25H1015.15L1042 10Z" fill="#013F07"/>
<path d="M1123 14L1149.85 113H1096.15L1123 14Z" fill="#013F07"/>
<path d="M1250 10L1276.85 108.25H1223.15L1250 10Z" fill="#013F07"/>
<path d="M1452 5L1478.85 104H1425.15L1452 5Z" fill="#013F07"/>
<path d="M1409 5L1435.85 104H1382.15L1409 5Z" fill="#013F07"/>
<path d="M983 67L1009.85 166H956.153L983 67Z" fill="#003405"/>
<path d="M1025 30L1051.85 129H998.153L1025 30Z" fill="#003405"/>
<path d="M983 67L1009.85 166H956.153L983 67Z" fill="#003405"/>
<path d="M1106 35L1132.85 133.25H1079.15L1106 35Z" fill="#003405"/>
<path d="M1064 35L1090.85 133.25H1037.15L1064 35Z" fill="#003405"/>
<path d="M1184 25L1210.85 123.25H1157.15L1184 25Z" fill="#003405"/>
<path d="M1141 25L1167.85 123.25H1114.15L1141 25Z" fill="#003405"/>
<path d="M1265 30L1291.85 129H1238.15L1265 30Z" fill="#003405"/>
<path d="M1223 30L1249.85 129H1196.15L1223 30Z" fill="#003405"/>
<path d="M1194 25L1220.85 123.25H1167.15L1194 25Z" fill="#003405"/>
<path d="M1152 25L1178.85 123.25H1125.15L1152 25Z" fill="#003405"/>
<path d="M1233 30L1259.85 129H1206.15L1233 30Z" fill="#003405"/>
<path d="M1353 21L1379.85 119.25H1326.15L1353 21Z" fill="#003405"/>
<path d="M1311 21L1337.85 119.25H1284.15L1311 21Z" fill="#003405"/>
<path d="M1435 25L1461.85 123.25H1408.15L1435 25Z" fill="#003405"/>
<path d="M1392 25L1418.85 123.25H1365.15L1392 25Z" fill="#003405"/>
<path d="M1025 30L1051.85 129H998.153L1025 30Z" fill="#003405"/>
<path d="M1106 35L1132.85 133.25H1079.15L1106 35Z" fill="#003405"/>
<path d="M1152 25L1178.85 123.25H1125.15L1152 25Z" fill="#003405"/>
<path d="M1230.5 36L1257.78 135H1203.22L1230.5 36Z" fill="#003405"/>
<path d="M1435 25L1461.85 123.25H1408.15L1435 25Z" fill="#003405"/>
<path d="M1392 25L1418.85 123.25H1365.15L1392 25Z" fill="#003405"/>
<path d="M1004 54L1030.85 152.25H977.153L1004 54Z" fill="#002904"/>
<path d="M1047 54L1073.85 152.25H1020.15L1047 54Z" fill="#002904"/>
<path d="M1004 54L1030.85 152.25H977.153L1004 54Z" fill="#002904"/>
<path d="M1128 59L1154.85 157.25H1101.15L1128 59Z" fill="#002904"/>
<path d="M1086 59L1112.85 157.25H1059.15L1086 59Z" fill="#002904"/>
<path d="M1206 49L1232.85 148H1179.15L1206 49Z" fill="#002904"/>
<path d="M1150 46L1176.85 144.25H1123.15L1150 46Z" fill="#002904"/>
<path d="M1287 54L1313.85 152.25H1260.15L1287 54Z" fill="#002904"/>
<path d="M1066 49L1092.85 148H1039.15L1066 49Z" fill="#002904"/>
<path d="M1174 59L1200.85 157.25H1147.15L1174 59Z" fill="#002904"/>
<path d="M1298 54L1324.85 152.25H1271.15L1298 54Z" fill="#002904"/>
<path d="M1255 54L1281.85 152.25H1228.15L1255 54Z" fill="#002904"/>
<path d="M1370 50L1396.85 148.25H1343.15L1370 50Z" fill="#002904"/>
<path d="M1383 54L1409.85 152.25H1356.15L1383 54Z" fill="#002904"/>
<path d="M1437 50L1463.85 148.25H1410.15L1437 50Z" fill="#002904"/>
<path d="M1332.5 50L1364.98 158H1300.02L1332.5 50Z" fill="#002904"/>
<path d="M1457 49L1483.85 148H1430.15L1457 49Z" fill="#002904"/>
<path d="M1414 49L1440.85 148H1387.15L1414 49Z" fill="#002904"/>
<path d="M1025 61L1051.85 159.25H998.153L1025 61Z" fill="#002904"/>
<path d="M1124 61L1150.85 159.25H1097.15L1124 61Z" fill="#002904"/>
<path d="M1248.5 54L1275.78 152.25H1221.22L1248.5 54Z" fill="#002904"/>
<path d="M1457 49L1483.85 148H1430.15L1457 49Z" fill="#002904"/>
<path d="M1414 49L1440.85 148H1387.15L1414 49Z" fill="#002904"/>
<path d="M1468 17L1494.85 115.25H1441.15L1468 17Z" fill="#013F07"/>
<path d="M1511 17L1537.85 115.25H1484.15L1511 17Z" fill="#013F07"/>
<path d="M1468 17L1494.85 115.25H1441.15L1468 17Z" fill="#013F07"/>
<path d="M1592 21L1618.85 120H1565.15L1592 21Z" fill="#013F07"/>
<path d="M1549 21L1575.85 120H1522.15L1549 21Z" fill="#013F07"/>
<path d="M1673 12L1699.85 111H1646.15L1673 12Z" fill="#013F07"/>
<path d="M1627 12L1653.85 111H1600.15L1627 12Z" fill="#013F07"/>
<path d="M1751 17L1777.85 115.25H1724.15L1751 17Z" fill="#013F07"/>
<path d="M1765 7L1791.85 105.25H1738.15L1765 7Z" fill="#013F07"/>
<path d="M1719 17L1745.85 115.25H1692.15L1719 17Z" fill="#013F07"/>
<path d="M1839 7L1865.85 105.25H1812.15L1839 7Z" fill="#013F07"/>
<path d="M1801.5 21L1828.78 120H1774.22L1801.5 21Z" fill="#013F07"/>
<path d="M1921 12L1947.85 111H1894.15L1921 12Z" fill="#013F07"/>
<path d="M1878 12L1904.85 111H1851.15L1878 12Z" fill="#013F07"/>
<path d="M1511 17L1537.85 115.25H1484.15L1511 17Z" fill="#013F07"/>
<path d="M1592 21L1618.85 120H1565.15L1592 21Z" fill="#013F07"/>
<path d="M1719 17L1745.85 115.25H1692.15L1719 17Z" fill="#013F07"/>
<path d="M1921 12L1947.85 111H1894.15L1921 12Z" fill="#013F07"/>
<path d="M1878 12L1904.85 111H1851.15L1878 12Z" fill="#013F07"/>
<path d="M1461 64L1487.85 163H1434.15L1461 64Z" fill="#003405"/>
<path d="M1494 37L1520.85 136H1467.15L1494 37Z" fill="#003405"/>
<path d="M1423 64L1449.85 163H1396.15L1423 64Z" fill="#003405"/>
<path d="M1575 42L1601.85 140.25H1548.15L1575 42Z" fill="#003405"/>
<path d="M1533 42L1559.85 140.25H1506.15L1533 42Z" fill="#003405"/>
<path d="M1653 32L1679.85 130.25H1626.15L1653 32Z" fill="#003405"/>
<path d="M1610 32L1636.85 130.25H1583.15L1610 32Z" fill="#003405"/>
<path d="M1734 37L1760.85 136H1707.15L1734 37Z" fill="#003405"/>
<path d="M1692 37L1718.85 136H1665.15L1692 37Z" fill="#003405"/>
<path d="M1663 32L1689.85 130.25H1636.15L1663 32Z" fill="#003405"/>
<path d="M1621 32L1647.85 130.25H1594.15L1621 32Z" fill="#003405"/>
<path d="M1702 37L1728.85 136H1675.15L1702 37Z" fill="#003405"/>
<path d="M1822 28L1848.85 126.25H1795.15L1822 28Z" fill="#003405"/>
<path d="M1780 28L1806.85 126.25H1753.15L1780 28Z" fill="#003405"/>
<path d="M1904 32L1930.85 130.25H1877.15L1904 32Z" fill="#003405"/>
<path d="M1861 32L1887.85 130.25H1834.15L1861 32Z" fill="#003405"/>
<path d="M1494 37L1520.85 136H1467.15L1494 37Z" fill="#003405"/>
<path d="M1575 42L1601.85 140.25H1548.15L1575 42Z" fill="#003405"/>
<path d="M1621 32L1647.85 130.25H1594.15L1621 32Z" fill="#003405"/>
<path d="M1699.5 43L1726.78 142H1672.22L1699.5 43Z" fill="#003405"/>
<path d="M1904 32L1930.85 130.25H1877.15L1904 32Z" fill="#003405"/>
<path d="M1861 32L1887.85 130.25H1834.15L1861 32Z" fill="#003405"/>
<path d="M1473 61L1499.85 159.25H1446.15L1473 61Z" fill="#002904"/>
<path d="M1516 61L1542.85 159.25H1489.15L1516 61Z" fill="#002904"/>
<path d="M1218 64L1244.85 162.25H1191.15L1218 64Z" fill="#002904"/>
<path d="M1597 66L1623.85 164.25H1570.15L1597 66Z" fill="#002904"/>
<path d="M1555 66L1581.85 164.25H1528.15L1555 66Z" fill="#002904"/>
<path d="M1675 56L1701.85 155H1648.15L1675 56Z" fill="#002904"/>
<path d="M1619 53L1645.85 151.25H1592.15L1619 53Z" fill="#002904"/>
<path d="M1756 61L1782.85 159.25H1729.15L1756 61Z" fill="#002904"/>
<path d="M1535 56L1561.85 155H1508.15L1535 56Z" fill="#002904"/>
<path d="M1643 66L1669.85 164.25H1616.15L1643 66Z" fill="#002904"/>
<path d="M1767 61L1793.85 159.25H1740.15L1767 61Z" fill="#002904"/>
<path d="M1724 61L1750.85 159.25H1697.15L1724 61Z" fill="#002904"/>
<path d="M1839 57L1865.85 155.25H1812.15L1839 57Z" fill="#002904"/>
<path d="M1852 61L1878.85 159.25H1825.15L1852 61Z" fill="#002904"/>
<path d="M1906 57L1932.85 155.25H1879.15L1906 57Z" fill="#002904"/>
<path d="M1801.5 57L1833.98 165H1769.02L1801.5 57Z" fill="#002904"/>
<path d="M1926 56L1952.85 155H1899.15L1926 56Z" fill="#002904"/>
<path d="M1883 56L1909.85 155H1856.15L1883 56Z" fill="#002904"/>
<path d="M1512 56L1538.85 154.25H1485.15L1512 56Z" fill="#002904"/>
<path d="M1593 68L1619.85 166.25H1566.15L1593 68Z" fill="#002904"/>
<path d="M1717.5 61L1744.78 159.25H1690.22L1717.5 61Z" fill="#002904"/>
<path d="M1926 56L1952.85 155H1899.15L1926 56Z" fill="#002904"/>
<path d="M1883 56L1909.85 155H1856.15L1883 56Z" fill="#002904"/>
<path d="M1951 14L1977.85 112.25H1924.15L1951 14Z" fill="#013F07"/>
<path d="M1994 14L2020.85 112.25H1967.15L1994 14Z" fill="#013F07"/>
<path d="M1951 14L1977.85 112.25H1924.15L1951 14Z" fill="#013F07"/>
<path d="M2075 18L2101.85 117H2048.15L2075 18Z" fill="#013F07"/>
<path d="M2032 18L2058.85 117H2005.15L2032 18Z" fill="#013F07"/>
<path d="M2156 9L2182.85 108H2129.15L2156 9Z" fill="#013F07"/>
<path d="M2110 9L2136.85 108H2083.15L2110 9Z" fill="#013F07"/>
<path d="M2234 14L2260.85 112.25H2207.15L2234 14Z" fill="#013F07"/>
<path d="M2248 4L2274.85 102.25H2221.15L2248 4Z" fill="#013F07"/>
<path d="M2202 14L2228.85 112.25H2175.15L2202 14Z" fill="#013F07"/>
<path d="M2322 4L2348.85 102.25H2295.15L2322 4Z" fill="#013F07"/>
<path d="M2284.5 18L2311.78 117H2257.22L2284.5 18Z" fill="#013F07"/>
<path d="M2404 9L2430.85 108H2377.15L2404 9Z" fill="#013F07"/>
<path d="M2361 9L2387.85 108H2334.15L2361 9Z" fill="#013F07"/>
<path d="M1994 14L2020.85 112.25H1967.15L1994 14Z" fill="#013F07"/>
<path d="M2075 18L2101.85 117H2048.15L2075 18Z" fill="#013F07"/>
<path d="M2202 14L2228.85 112.25H2175.15L2202 14Z" fill="#013F07"/>
<path d="M2404 9L2430.85 108H2377.15L2404 9Z" fill="#013F07"/>
<path d="M2361 9L2387.85 108H2334.15L2361 9Z" fill="#013F07"/>
<path d="M1935 71L1961.85 170H1908.15L1935 71Z" fill="#003405"/>
<path d="M1977 34L2003.85 133H1950.15L1977 34Z" fill="#003405"/>
<path d="M1895 65L1921.85 164H1868.15L1895 65Z" fill="#003405"/>
<path d="M2058 39L2084.85 137.25H2031.15L2058 39Z" fill="#003405"/>
<path d="M2016 39L2042.85 137.25H1989.15L2016 39Z" fill="#003405"/>
<path d="M2136 29L2162.85 127.25H2109.15L2136 29Z" fill="#003405"/>
<path d="M2093 29L2119.85 127.25H2066.15L2093 29Z" fill="#003405"/>
<path d="M2217 34L2243.85 133H2190.15L2217 34Z" fill="#003405"/>
<path d="M2175 34L2201.85 133H2148.15L2175 34Z" fill="#003405"/>
<path d="M2146 29L2172.85 127.25H2119.15L2146 29Z" fill="#003405"/>
<path d="M2104 29L2130.85 127.25H2077.15L2104 29Z" fill="#003405"/>
<path d="M2185 34L2211.85 133H2158.15L2185 34Z" fill="#003405"/>
<path d="M2305 25L2331.85 123.25H2278.15L2305 25Z" fill="#003405"/>
<path d="M2263 25L2289.85 123.25H2236.15L2263 25Z" fill="#003405"/>
<path d="M2387 29L2413.85 127.25H2360.15L2387 29Z" fill="#003405"/>
<path d="M2344 29L2370.85 127.25H2317.15L2344 29Z" fill="#003405"/>
<path d="M1977 34L2003.85 133H1950.15L1977 34Z" fill="#003405"/>
<path d="M2058 39L2084.85 137.25H2031.15L2058 39Z" fill="#003405"/>
<path d="M2104 29L2130.85 127.25H2077.15L2104 29Z" fill="#003405"/>
<path d="M2182.5 40L2209.78 139H2155.22L2182.5 40Z" fill="#003405"/>
<path d="M2387 29L2413.85 127.25H2360.15L2387 29Z" fill="#003405"/>
<path d="M2344 29L2370.85 127.25H2317.15L2344 29Z" fill="#003405"/>
<path d="M1956 58L1982.85 156.25H1929.15L1956 58Z" fill="#002904"/>
<path d="M1999 58L2025.85 156.25H1972.15L1999 58Z" fill="#002904"/>
<path d="M1956 58L1982.85 156.25H1929.15L1956 58Z" fill="#002904"/>
<path d="M2080 63L2106.85 161.25H2053.15L2080 63Z" fill="#002904"/>
<path d="M2038 63L2064.85 161.25H2011.15L2038 63Z" fill="#002904"/>
<path d="M2158 53L2184.85 152H2131.15L2158 53Z" fill="#002904"/>
<path d="M2102 50L2128.85 148.25H2075.15L2102 50Z" fill="#002904"/>
<path d="M2239 58L2265.85 156.25H2212.15L2239 58Z" fill="#002904"/>
<path d="M2018 53L2044.85 152H1991.15L2018 53Z" fill="#002904"/>
<path d="M2126 63L2152.85 161.25H2099.15L2126 63Z" fill="#002904"/>
<path d="M2250 58L2276.85 156.25H2223.15L2250 58Z" fill="#002904"/>
<path d="M2207 58L2233.85 156.25H2180.15L2207 58Z" fill="#002904"/>
<path d="M2322 54L2348.85 152.25H2295.15L2322 54Z" fill="#002904"/>
<path d="M2335 58L2361.85 156.25H2308.15L2335 58Z" fill="#002904"/>
<path d="M2389 54L2415.85 152.25H2362.15L2389 54Z" fill="#002904"/>
<path d="M2284.5 54L2316.98 162H2252.02L2284.5 54Z" fill="#002904"/>
<path d="M2409 53L2435.85 152H2382.15L2409 53Z" fill="#002904"/>
<path d="M2366 53L2392.85 152H2339.15L2366 53Z" fill="#002904"/>
<path d="M1995 53L2021.85 151.25H1968.15L1995 53Z" fill="#002904"/>
<path d="M2076 65L2102.85 163.25H2049.15L2076 65Z" fill="#002904"/>
<path d="M2200.5 58L2227.78 156.25H2173.22L2200.5 58Z" fill="#002904"/>
<path d="M2409 53L2435.85 152H2382.15L2409 53Z" fill="#002904"/>
<path d="M2366 53L2392.85 152H2339.15L2366 53Z" fill="#002904"/>
<path d="M2420 10L2446.85 108.25H2393.15L2420 10Z" fill="#013F07"/>
<path d="M2463 10L2489.85 108.25H2436.15L2463 10Z" fill="#013F07"/>
<path d="M2420 10L2446.85 108.25H2393.15L2420 10Z" fill="#013F07"/>
<path d="M2544 14L2570.85 113H2517.15L2544 14Z" fill="#013F07"/>
<path d="M2501 14L2527.85 113H2474.15L2501 14Z" fill="#013F07"/>
<path d="M2625 5L2651.85 104H2598.15L2625 5Z" fill="#013F07"/>
<path d="M2579 5L2605.85 104H2552.15L2579 5Z" fill="#013F07"/>
<path d="M2703 10L2729.85 108.25H2676.15L2703 10Z" fill="#013F07"/>
<path d="M2717 0L2743.85 98.25H2690.15L2717 0Z" fill="#013F07"/>
<path d="M2671 10L2697.85 108.25H2644.15L2671 10Z" fill="#013F07"/>
<path d="M2791 0L2817.85 98.25H2764.15L2791 0Z" fill="#013F07"/>
<path d="M2753.5 14L2780.78 113H2726.22L2753.5 14Z" fill="#013F07"/>
<path d="M2873 5L2899.85 104H2846.15L2873 5Z" fill="#013F07"/>
<path d="M2830 5L2856.85 104H2803.15L2830 5Z" fill="#013F07"/>
<path d="M2463 10L2489.85 108.25H2436.15L2463 10Z" fill="#013F07"/>
<path d="M2544 14L2570.85 113H2517.15L2544 14Z" fill="#013F07"/>
<path d="M2671 10L2697.85 108.25H2644.15L2671 10Z" fill="#013F07"/>
<path d="M2873 5L2899.85 104H2846.15L2873 5Z" fill="#013F07"/>
<path d="M2830 5L2856.85 104H2803.15L2830 5Z" fill="#013F07"/>
<path d="M2404 67L2430.85 166H2377.15L2404 67Z" fill="#003405"/>
<path d="M2446 30L2472.85 129H2419.15L2446 30Z" fill="#003405"/>
<path d="M2404 67L2430.85 166H2377.15L2404 67Z" fill="#003405"/>
<path d="M2527 35L2553.85 133.25H2500.15L2527 35Z" fill="#003405"/>
<path d="M2485 35L2511.85 133.25H2458.15L2485 35Z" fill="#003405"/>
<path d="M2605 25L2631.85 123.25H2578.15L2605 25Z" fill="#003405"/>
<path d="M2562 25L2588.85 123.25H2535.15L2562 25Z" fill="#003405"/>
<path d="M2686 30L2712.85 129H2659.15L2686 30Z" fill="#003405"/>
<path d="M2644 30L2670.85 129H2617.15L2644 30Z" fill="#003405"/>
<path d="M2615 25L2641.85 123.25H2588.15L2615 25Z" fill="#003405"/>
<path d="M2573 25L2599.85 123.25H2546.15L2573 25Z" fill="#003405"/>
<path d="M2654 30L2680.85 129H2627.15L2654 30Z" fill="#003405"/>
<path d="M2774 21L2800.85 119.25H2747.15L2774 21Z" fill="#003405"/>
<path d="M2732 21L2758.85 119.25H2705.15L2732 21Z" fill="#003405"/>
<path d="M2856 25L2882.85 123.25H2829.15L2856 25Z" fill="#003405"/>
<path d="M2813 25L2839.85 123.25H2786.15L2813 25Z" fill="#003405"/>
<path d="M2446 30L2472.85 129H2419.15L2446 30Z" fill="#003405"/>
<path d="M2527 35L2553.85 133.25H2500.15L2527 35Z" fill="#003405"/>
<path d="M2573 25L2599.85 123.25H2546.15L2573 25Z" fill="#003405"/>
<path d="M2651.5 36L2678.78 135H2624.22L2651.5 36Z" fill="#003405"/>
<path d="M2856 25L2882.85 123.25H2829.15L2856 25Z" fill="#003405"/>
<path d="M2813 25L2839.85 123.25H2786.15L2813 25Z" fill="#003405"/>
<path d="M2425 54L2451.85 152.25H2398.15L2425 54Z" fill="#002904"/>
<path d="M2468 54L2494.85 152.25H2441.15L2468 54Z" fill="#002904"/>
<path d="M2389 66L2415.85 164.25H2362.15L2389 66Z" fill="#002904"/>
<path d="M2549 59L2575.85 157.25H2522.15L2549 59Z" fill="#002904"/>
<path d="M2507 59L2533.85 157.25H2480.15L2507 59Z" fill="#002904"/>
<path d="M2627 49L2653.85 148H2600.15L2627 49Z" fill="#002904"/>
<path d="M2571 46L2597.85 144.25H2544.15L2571 46Z" fill="#002904"/>
<path d="M2708 54L2734.85 152.25H2681.15L2708 54Z" fill="#002904"/>
<path d="M2487 49L2513.85 148H2460.15L2487 49Z" fill="#002904"/>
<path d="M2595 59L2621.85 157.25H2568.15L2595 59Z" fill="#002904"/>
<path d="M2719 54L2745.85 152.25H2692.15L2719 54Z" fill="#002904"/>
<path d="M2676 54L2702.85 152.25H2649.15L2676 54Z" fill="#002904"/>
<path d="M2791 50L2817.85 148.25H2764.15L2791 50Z" fill="#002904"/>
<path d="M2804 54L2830.85 152.25H2777.15L2804 54Z" fill="#002904"/>
<path d="M2858 50L2884.85 148.25H2831.15L2858 50Z" fill="#002904"/>
<path d="M2753.5 50L2785.98 158H2721.02L2753.5 50Z" fill="#002904"/>
<path d="M2878 49L2904.85 148H2851.15L2878 49Z" fill="#002904"/>
<path d="M2835 49L2861.85 148H2808.15L2835 49Z" fill="#002904"/>
<path d="M2464 49L2490.85 147.25H2437.15L2464 49Z" fill="#002904"/>
<path d="M2635 64L2661.85 162.25H2608.15L2635 64Z" fill="#002904"/>
<path d="M2669.5 54L2696.78 152.25H2642.22L2669.5 54Z" fill="#002904"/>
<path d="M2878 49L2904.85 148H2851.15L2878 49Z" fill="#002904"/>
<path d="M2835 49L2861.85 148H2808.15L2835 49Z" fill="#002904"/>
</svg>
