<svg width="86" height="86" viewBox="0 0 86 86" fill="none" xmlns="http://www.w3.org/2000/svg">
<circle cx="43" cy="43" r="43" fill="#D9D9D9"/>
<path d="M65.6185 61.5998L56.7915 52.7692C63.3963 43.9429 61.5954 31.4336 52.7691 24.8288C43.9429 18.2241 31.4335 20.025 24.8288 28.8512C18.224 37.6775 20.0249 50.1868 28.8512 56.7916C35.9411 62.0971 45.6791 62.0971 52.7691 56.7916L61.5998 65.6222C62.7095 66.732 64.5088 66.732 65.6184 65.6222C66.7281 64.5125 66.7281 62.7133 65.6184 61.6037L65.6185 61.5998ZM40.8837 55.0872C33.0394 55.0872 26.6804 48.7281 26.6804 40.8838C26.6804 33.0394 33.0394 26.6804 40.8837 26.6804C48.7281 26.6804 55.0871 33.0394 55.0871 40.8838C55.0788 48.7246 48.7246 55.0788 40.8837 55.0872Z" fill="black"/>
</svg>
