<svg width="24" height="24" viewBox="0 0 24 24" fill="none" xmlns="http://www.w3.org/2000/svg">
<path d="M1.5 10.5H22.5C23.3284 10.5 24 11.1716 24 12C24 12.8284 23.3284 13.5 22.5 13.5H1.5C0.671577 13.5 0 12.8284 0 12C0 11.1716 0.671577 10.5 1.5 10.5Z" fill="white"/>
<path d="M22.5 6.5H1.5C0.671577 6.5 0 5.82842 0 5C0 4.17158 0.671577 3.5 1.5 3.5H22.5C23.3284 3.5 24 4.17158 24 5C24 5.82842 23.3284 6.5 22.5 6.5Z" fill="white"/>
<path d="M1.5 17.5H22.5C23.3284 17.5 24 18.1716 24 19C24 19.8284 23.3284 20.5 22.5 20.5H1.5C0.671577 20.5 0 19.8284 0 19C0 18.1716 0.671577 17.5 1.5 17.5Z" fill="white"/>
</svg>
