<svg width="37" height="37" viewBox="0 0 37 37" fill="none" xmlns="http://www.w3.org/2000/svg">
<path d="M20.6583 17.4054C20.8028 17.5487 20.9175 17.7192 20.9958 17.9071C21.0741 18.0949 21.1144 18.2964 21.1144 18.5C21.1144 18.7035 21.0741 18.905 20.9958 19.0928C20.9175 19.2807 20.8028 19.4512 20.6583 19.5945L13.5821 26.6554C13.4376 26.7987 13.3229 26.9692 13.2446 27.1571C13.1664 27.3449 13.1261 27.5464 13.1261 27.75C13.1261 27.9535 13.1664 28.155 13.2446 28.3428C13.3229 28.5307 13.4376 28.7012 13.5821 28.8445C13.8709 29.1317 14.2617 29.2928 14.669 29.2928C15.0763 29.2928 15.467 29.1317 15.7558 28.8445L22.8321 21.7683C23.6982 20.9011 24.1847 19.7256 24.1847 18.5C24.1847 17.2743 23.6982 16.0988 22.8321 15.2316L15.7558 8.15538C15.4687 7.87056 15.0811 7.70999 14.6767 7.70829C14.4738 7.70712 14.2727 7.74601 14.0848 7.82273C13.897 7.89945 13.7262 8.01249 13.5821 8.15538C13.4376 8.29869 13.3229 8.4692 13.2446 8.65707C13.1664 8.84494 13.1261 9.04644 13.1261 9.24996C13.1261 9.45348 13.1664 9.65498 13.2446 9.84285C13.3229 10.0307 13.4376 10.2012 13.5821 10.3445L20.6583 17.4054Z" fill="white"/>
</svg>
