<svg width="100" height="100" viewBox="0 0 100 100" fill="none" xmlns="http://www.w3.org/2000/svg">
<circle cx="56" cy="44" r="43" fill="#D9D9D9"/>
<path d="M78.6185 62.5997L69.7915 53.769C76.3963 44.9428 74.5954 32.4334 65.7691 25.8287C56.9429 19.2239 44.4335 21.0248 37.8288 29.8511C31.224 38.6773 33.0249 51.1867 41.8512 57.7914C48.9411 63.0969 58.6791 63.0969 65.7691 57.7914L74.5998 66.6221C75.7095 67.7318 77.5088 67.7318 78.6184 66.6221C79.7281 65.5124 79.7281 63.7132 78.6184 62.6035L78.6185 62.5997ZM53.8837 56.087C46.0394 56.087 39.6804 49.728 39.6804 41.8837C39.6804 34.0393 46.0394 27.6803 53.8837 27.6803C61.7281 27.6803 68.0871 34.0393 68.0871 41.8837C68.0788 49.7245 61.7246 56.0787 53.8837 56.087Z" fill="black"/>
<path d="M21.233 40.8182H22.7045L26.1648 49.2699H26.2841L29.7443 40.8182H31.2159V51H30.0625V43.2642H29.9631L26.7812 51H25.6676L22.4858 43.2642H22.3864V51H21.233V40.8182ZM36.6312 51.1591C35.9418 51.1591 35.3369 50.995 34.8166 50.6669C34.2995 50.3388 33.8952 49.8797 33.6035 49.2898C33.3152 48.6998 33.171 48.0104 33.171 47.2216C33.171 46.4261 33.3152 45.7318 33.6035 45.1385C33.8952 44.5452 34.2995 44.0845 34.8166 43.7564C35.3369 43.4283 35.9418 43.2642 36.6312 43.2642C37.3206 43.2642 37.9238 43.4283 38.4409 43.7564C38.9612 44.0845 39.3656 44.5452 39.6539 45.1385C39.9456 45.7318 40.0914 46.4261 40.0914 47.2216C40.0914 48.0104 39.9456 48.6998 39.6539 49.2898C39.3656 49.8797 38.9612 50.3388 38.4409 50.6669C37.9238 50.995 37.3206 51.1591 36.6312 51.1591ZM36.6312 50.1051C37.1549 50.1051 37.5858 49.9709 37.9238 49.7024C38.2619 49.4339 38.5121 49.081 38.6745 48.6435C38.8369 48.206 38.9181 47.732 38.9181 47.2216C38.9181 46.7112 38.8369 46.2356 38.6745 45.7947C38.5121 45.3539 38.2619 44.9976 37.9238 44.7259C37.5858 44.4541 37.1549 44.3182 36.6312 44.3182C36.1075 44.3182 35.6767 44.4541 35.3386 44.7259C35.0005 44.9976 34.7503 45.3539 34.5879 45.7947C34.4255 46.2356 34.3443 46.7112 34.3443 47.2216C34.3443 47.732 34.4255 48.206 34.5879 48.6435C34.7503 49.081 35.0005 49.4339 35.3386 49.7024C35.6767 49.9709 36.1075 50.1051 36.6312 50.1051ZM41.8825 51V43.3636H43.016V44.517H43.0955C43.2347 44.1392 43.4866 43.8326 43.8512 43.5973C44.2158 43.362 44.6268 43.2443 45.0842 43.2443C45.1703 43.2443 45.2781 43.246 45.4073 43.2493C45.5366 43.2526 45.6344 43.2576 45.7006 43.2642V44.4574C45.6609 44.4474 45.5697 44.4325 45.4272 44.4126C45.288 44.3894 45.1405 44.3778 44.9847 44.3778C44.6135 44.3778 44.2821 44.4557 43.9904 44.6115C43.7021 44.764 43.4734 44.9761 43.3043 45.2479C43.1386 45.5163 43.0558 45.8229 43.0558 46.1676V51H41.8825ZM50.0607 51.1591C49.3249 51.1591 48.6902 50.9967 48.1566 50.6719C47.6263 50.3438 47.217 49.8864 46.9286 49.2997C46.6436 48.7098 46.5011 48.0237 46.5011 47.2415C46.5011 46.4593 46.6436 45.7699 46.9286 45.1733C47.217 44.5734 47.618 44.1061 48.1317 43.7713C48.6488 43.4332 49.252 43.2642 49.9414 43.2642C50.3391 43.2642 50.7319 43.3305 51.1197 43.4631C51.5075 43.5956 51.8604 43.8111 52.1786 44.1094C52.4968 44.4044 52.7504 44.7955 52.9393 45.2827C53.1282 45.7699 53.2227 46.3698 53.2227 47.0824V47.5795H47.3363V46.5653H52.0295C52.0295 46.1345 51.9433 45.75 51.771 45.4119C51.6019 45.0739 51.36 44.8071 51.0451 44.6115C50.7335 44.416 50.3656 44.3182 49.9414 44.3182C49.4741 44.3182 49.0697 44.4342 48.7283 44.6662C48.3903 44.8949 48.1301 45.1932 47.9478 45.5611C47.7655 45.929 47.6744 46.3234 47.6744 46.7443V47.4205C47.6744 47.9972 47.7738 48.486 47.9727 48.8871C48.1748 49.2848 48.4549 49.5881 48.8129 49.7969C49.1708 50.0024 49.5868 50.1051 50.0607 50.1051C50.369 50.1051 50.6474 50.062 50.896 49.9759C51.1478 49.8864 51.3649 49.7538 51.5472 49.5781C51.7295 49.3991 51.8704 49.1771 51.9698 48.9119L53.1033 49.2301C52.984 49.6146 52.7835 49.9527 52.5018 50.2443C52.2201 50.5327 51.872 50.758 51.4577 50.9205C51.0434 51.0795 50.5778 51.1591 50.0607 51.1591ZM64.6722 43.3636C64.6126 42.8598 64.3706 42.4688 63.9464 42.1903C63.5221 41.9119 63.0018 41.7727 62.3853 41.7727C61.9345 41.7727 61.5401 41.8456 61.2021 41.9915C60.8673 42.1373 60.6055 42.3378 60.4165 42.593C60.2309 42.8482 60.1381 43.1383 60.1381 43.4631C60.1381 43.7348 60.2028 43.9685 60.332 44.1641C60.4646 44.3563 60.6336 44.517 60.8391 44.6463C61.0446 44.7723 61.2601 44.8767 61.4854 44.9595C61.7108 45.0391 61.918 45.1037 62.1069 45.1534L63.141 45.4318C63.4061 45.5014 63.7011 45.5975 64.0259 45.7202C64.354 45.8428 64.6673 46.0102 64.9656 46.2223C65.2672 46.4311 65.5157 46.6996 65.7113 47.0277C65.9068 47.3558 66.0046 47.7585 66.0046 48.2358C66.0046 48.786 65.8604 49.2831 65.5721 49.7273C65.2871 50.1714 64.8694 50.5244 64.3192 50.7862C63.7724 51.0481 63.1078 51.179 62.3256 51.179C61.5965 51.179 60.9651 51.0613 60.4315 50.826C59.9012 50.5907 59.4835 50.2625 59.1786 49.8416C58.877 49.4207 58.7063 48.9318 58.6665 48.375H59.9393C59.9724 48.7595 60.1017 49.0777 60.3271 49.3295C60.5558 49.5781 60.8441 49.7637 61.1921 49.8864C61.5434 50.0057 61.9213 50.0653 62.3256 50.0653C62.7963 50.0653 63.2189 49.9891 63.5934 49.8366C63.9679 49.6809 64.2646 49.4654 64.4833 49.1903C64.7021 48.9119 64.8114 48.5871 64.8114 48.2159C64.8114 47.8778 64.717 47.6027 64.5281 47.3906C64.3391 47.1785 64.0906 47.0062 63.7823 46.8736C63.4741 46.741 63.141 46.625 62.783 46.5256L61.5302 46.1676C60.7347 45.9389 60.105 45.6125 59.641 45.1882C59.177 44.764 58.945 44.2088 58.945 43.5227C58.945 42.9527 59.0991 42.4555 59.4073 42.0312C59.7189 41.6037 60.1365 41.2723 60.6602 41.0369C61.1871 40.7983 61.7754 40.679 62.4251 40.679C63.0813 40.679 63.6647 40.7966 64.1751 41.032C64.6855 41.264 65.0898 41.5821 65.3881 41.9865C65.6897 42.3909 65.8488 42.8499 65.8654 43.3636H64.6722ZM71.1937 43.3636V44.358H67.2363V43.3636H71.1937ZM68.3897 41.5341H69.563V48.8125C69.563 49.1439 69.6111 49.3925 69.7072 49.5582C69.8066 49.7206 69.9326 49.83 70.085 49.8864C70.2408 49.9394 70.4049 49.9659 70.5772 49.9659C70.7065 49.9659 70.8126 49.9593 70.8954 49.946C70.9783 49.9295 71.0446 49.9162 71.0943 49.9062L71.3329 50.9602C71.2534 50.9901 71.1423 51.0199 70.9998 51.0497C70.8573 51.0829 70.6767 51.0994 70.4579 51.0994C70.1265 51.0994 69.8017 51.0282 69.4835 50.8857C69.1686 50.7431 68.9068 50.526 68.698 50.2344C68.4925 49.9427 68.3897 49.5748 68.3897 49.1307V41.5341ZM75.2058 51.179C74.7219 51.179 74.2827 51.0878 73.8883 50.9055C73.4939 50.7199 73.1807 50.4531 72.9487 50.1051C72.7167 49.7538 72.6007 49.3295 72.6007 48.8324C72.6007 48.3949 72.6868 48.0402 72.8592 47.7685C73.0315 47.4934 73.2619 47.2779 73.5502 47.1222C73.8386 46.9664 74.1568 46.8504 74.5048 46.7741C74.8561 46.6946 75.2091 46.6316 75.5637 46.5852C76.0278 46.5256 76.4039 46.4808 76.6923 46.451C76.984 46.4179 77.1961 46.3632 77.3287 46.2869C77.4645 46.2107 77.5325 46.0781 77.5325 45.8892V45.8494C77.5325 45.3589 77.3983 44.9777 77.1298 44.706C76.8646 44.4342 76.4619 44.2983 75.9217 44.2983C75.3616 44.2983 74.9224 44.4209 74.6042 44.6662C74.286 44.9115 74.0623 45.1733 73.9331 45.4517L72.8194 45.054C73.0183 44.59 73.2834 44.2287 73.6149 43.9702C73.9496 43.7083 74.3142 43.526 74.7086 43.4233C75.1064 43.3172 75.4975 43.2642 75.8819 43.2642C76.1272 43.2642 76.4089 43.294 76.7271 43.3537C77.0486 43.41 77.3585 43.5277 77.6568 43.7067C77.9584 43.8857 78.2086 44.1558 78.4075 44.517C78.6064 44.8783 78.7058 45.3622 78.7058 45.9688V51H77.5325V49.9659H77.4728C77.3933 50.1316 77.2607 50.3089 77.0751 50.4979C76.8895 50.6868 76.6426 50.8475 76.3343 50.9801C76.0261 51.1127 75.6499 51.179 75.2058 51.179ZM75.3848 50.125C75.8488 50.125 76.2399 50.0339 76.5581 49.8516C76.8796 49.6693 77.1215 49.4339 77.2839 49.1456C77.4496 48.8572 77.5325 48.554 77.5325 48.2358V47.1619C77.4828 47.2216 77.3734 47.2763 77.2044 47.326C77.0386 47.3724 76.8464 47.4138 76.6277 47.4503C76.4122 47.4834 76.2018 47.5133 75.9963 47.5398C75.7941 47.563 75.63 47.5829 75.5041 47.5994C75.1992 47.6392 74.9141 47.7038 74.649 47.7933C74.3871 47.8795 74.175 48.0104 74.0126 48.1861C73.8535 48.3584 73.774 48.5937 73.774 48.892C73.774 49.2997 73.9248 49.608 74.2264 49.8168C74.5313 50.0223 74.9174 50.125 75.3848 50.125ZM80.8473 51V43.3636H81.9808V44.517H82.0604C82.1996 44.1392 82.4515 43.8326 82.8161 43.5973C83.1806 43.362 83.5916 43.2443 84.049 43.2443C84.1352 43.2443 84.2429 43.246 84.3722 43.2493C84.5014 43.2526 84.5992 43.2576 84.6655 43.2642V44.4574C84.6257 44.4474 84.5346 44.4325 84.392 44.4126C84.2528 44.3894 84.1054 44.3778 83.9496 44.3778C83.5784 44.3778 83.2469 44.4557 82.9553 44.6115C82.6669 44.764 82.4382 44.9761 82.2692 45.2479C82.1035 45.5163 82.0206 45.8229 82.0206 46.1676V51H80.8473ZM91.4654 45.0739L90.4114 45.3722C90.3451 45.1965 90.2473 45.0258 90.1181 44.8601C89.9921 44.6911 89.8198 44.5518 89.601 44.4425C89.3823 44.3331 89.1022 44.2784 88.7608 44.2784C88.2935 44.2784 87.9041 44.3861 87.5925 44.6016C87.2843 44.8137 87.1301 45.0838 87.1301 45.4119C87.1301 45.7036 87.2362 45.9339 87.4483 46.103C87.6605 46.272 87.9919 46.4129 88.4426 46.5256L89.5762 46.804C90.2589 46.9697 90.7677 47.2232 91.1025 47.5646C91.4372 47.9027 91.6046 48.3385 91.6046 48.8722C91.6046 49.3097 91.4786 49.7008 91.2267 50.0455C90.9782 50.3902 90.6301 50.6619 90.1827 50.8608C89.7353 51.0597 89.2149 51.1591 88.6216 51.1591C87.8427 51.1591 87.1981 50.9901 86.6877 50.652C86.1773 50.3139 85.8541 49.8201 85.7182 49.1705L86.8319 48.892C86.9379 49.303 87.1384 49.6113 87.4334 49.8168C87.7317 50.0223 88.1212 50.125 88.6017 50.125C89.1486 50.125 89.5828 50.009 89.9043 49.777C90.2291 49.5417 90.3915 49.2599 90.3915 48.9318C90.3915 48.6667 90.2987 48.4446 90.1131 48.2656C89.9275 48.0833 89.6425 47.9474 89.258 47.858L87.9853 47.5597C87.2859 47.3939 86.7722 47.1371 86.4441 46.7891C86.1193 46.4377 85.9569 45.9986 85.9569 45.4716C85.9569 45.0407 86.0778 44.6596 86.3198 44.3281C86.565 43.9967 86.8981 43.7365 87.3191 43.5476C87.7433 43.3587 88.2239 43.2642 88.7608 43.2642C89.5165 43.2642 90.1098 43.4299 90.5407 43.7614C90.9748 44.0928 91.2831 44.5303 91.4654 45.0739Z" fill="#DB00FF"/>
</svg>
