<svg width="200" height="200" viewBox="0 0 200 200" fill="none" xmlns="http://www.w3.org/2000/svg">
<g clip-path="url(#clip0_404_51)">
<path d="M100 46.0253L97.6593 40.3406L91.974 37.9999L97.6593 35.6593L100 29.9746L102.341 35.6593L108.026 37.9999L102.341 40.3406L100 46.0253ZM96.638 34.6379L97.0007 33.7566L93.3333 31.3333L95.756 35.0006L96.638 34.6379ZM103.362 34.6379L104.215 34.9893L106.667 31.3339L103.011 33.7859L103.362 34.6379ZM103.362 41.3626L103.011 42.2153L106.667 44.6673L104.215 41.0119L103.362 41.3626ZM96.638 41.3626L95.7853 41.0113L93.3333 44.6666L96.9887 42.2146L96.638 41.3626Z" fill="#E2E1F2"/>
</g>
<defs>
<clipPath id="clip0_404_51">
<rect width="16" height="16" fill="white" transform="translate(92 30)"/>
</clipPath>
</defs>
</svg>
